<svg xmlns="http://www.w3.org/2000/svg" width="1918.68175" height="1194.02779" viewBox="0 0 1918.68175 1194.02779"><path d="M1466.113,1144.96106q-3.54986-3.85-7.79992-3.29992a9.58775,9.58775,0,0,0-6.4,4.15,11.8124,11.8124,0,0,0-2.44995,7.75,9.82541,9.82541,0,0,0,4.04993,7.6q3.65,2.75006,9.70007,2.65a24.69318,24.69318,0,0,0,9.8999-2.25q6.7-3.10015,13.65-17.3501a125.9926,125.9926,0,0,0,8-21.95,6.32428,6.32428,0,0,1,.85-2.35,2.53646,2.53646,0,0,1,2.45008-.95008q16.04993.55,27.79992.55,2.65009.2,3.05.75.3501.40008-.19995,2.1-6.3001,21.29993-7.15,23.45007-6.99994,18.19995-14.45008,18.1a28.45973,28.45973,0,0,0,1.8-7.9q.30012-5.00005-2.65-7.1-4.6-3.29994-9.2-.35a15.16705,15.16705,0,0,0-5.75,8.54993q-1.6,5.85,1,10.1,3.0498,4.80012,10.95,4.70008,11.6001-.20014,19.6-14.5,5.95-10.35,11.3-31.4.95-4.25005,1.80005-5.15,1.04993-.95,5.19995-1.54993a14.6001,14.6001,0,0,0,1.7-.15,1.056,1.056,0,0,0,1-1.25q-.00018-.85-2.79992-.75-3.1,0-3.70008-.85.74982-1.30005,3.70008-.65,2.6499.54986,3-.95008.29993-1.7-3.1-2.04992-3.20013-.29994-2.75-1.8.85-2.84987,5.3999-2.75,4.6,0,5.25-1.4.40009-.95-.95-1.04992-1.5-.20014-1.6-.85-.3501-3.3001-4.4-2.9-2.95.34991-1.8-1.35a2.27142,2.27142,0,0,0,.20008-2.15q-.29993-1.04994-1.05-.55-.54987.35008-3.1-.5-1.69995-.75-1.8,1.9-.1,3.1-4.45,3.30005h-30.4q.99993-4.45.15-4.9a6.62179,6.62179,0,0,1-3.55-.55q-1.6-.59987-2,.45007a12.76049,12.76049,0,0,0-.35,2.25q-.75,3.8-8.5,2.85-7.45-.85-7.45,1.95a2.05343,2.05343,0,0,0,1.7,2.45007q.55.19995,10.65,1.04993.30012,4.15008-7.05,3.5-7.44983-.75-7.35,3.5l-.2.55q-.95014,2.25.1,2.45.3501.1,11.6.95007.55,0-3.9,13.44995-4.69976,14.25-8.1,19.6-8.45,8.95018-9.4,6.15,1.20007-2.85,2.05-5.1a7.3661,7.3661,0,0,0-1.8-8.20008m-10.8999,9.25a4.83877,4.83877,0,0,1-.95007-4.54992,12.352,12.352,0,0,1,3.4-4.4q-.64983,1.80011-1.8,4.7a9.869,9.869,0,0,0-.6499,4.25m8.19995,0q-1.60015,2.45013-2.85,1.70008-2.45014-1.24989-.20008-5.5,2.30017-4.5,3.5-1.75a5.57849,5.57849,0,0,1-.45,5.54992m34.65-43.75q.29993-2.14985,3.4-2.25,1.9001-.1,28.19995.1001h1.5q.85017.1.65,1.29993a2.53373,2.53373,0,0,1-2.35,2.35h-14.9v-.25q-12.45007.24995-14.5.25-2.15-.15-2-1.5m3.7,51.1001q-3.50007,1.69995-3.5-2.95007,0-4.6,3.70007-4.29993,2.04987.1,1.85,3.29993-.3501,3.20013-2.05,3.95007m-84.2-80.15q.25013,4.29986,3.35,1.2,12.64985-13.09992,8.6-22.15a82.98889,82.98889,0,0,1-4.35-8.85,27.64783,27.64783,0,0,1-1.94995-13.1q1.00013-11-15.65,12.9-22.15009,32.04994-28.75,37.25-1.6-6.15015-5.95008-8.95a9.33859,9.33859,0,0,0-9.6-.2q-9.15,4.6-5.65,13.4,3.50007,8.75006,13.45008,6.2,7.34985-1.89992,14.79992-10.95.30012-.45007,25.55-34.1-.44988.55005,2.85,10,3.55,10.1001,3.65,11.2a55.59145,55.59145,0,0,1-.35,6.15m451.79992,82.35q-9.65-4.15008-22.04992-3.05-14.9,2.8-22.35,3.9-5.24982,1.10008-4.4,4.1.7998,3.05,6.9,1.65,18.4499-4.4,18.75-4.65,11.00007-1.65,19.54993,1.1001.55.24994,3.6-.55005v-2.5m29.5-74.15a20.65437,20.65437,0,0,0,1.65-4.7q0-2.49994-3.29993-3.85-3.6-1.39993-5.25.8a18.178,18.178,0,0,0-1.65,5,176.82893,176.82893,0,0,1-11.05,26.45007q-9.9,19.84992-17.1,19.54993,0-13.5-7.15-17.35-6.34992-3.3001-12.4,1.4-7.19988,5.75006-4.3999,16.25,2.75007,10.75011,11.85,13.5,25.8999,8.00006,48.79992-57.05m-238.45-184.7q-4.39983.84987-10.5,6.1,9.7,1.9,20.7-3.05-6.05-3.6-10.2-3.05m12.95-8.55005q1.4-.00009,1.4-2.44995-.54987-4.40013-14.6-.85-14.6499,3.9-22.35,10.75,6.9.3,17.9-3.3,12.4499-3.85,17.6499-4.15m93.5-1.9q11.05024-16.55,5.55-30.6-8.5501-13.8-9.4-21.55-1.34985-14.35-14.6,10.2-19.60015,36.15006-29.5,45,.8-9.1-1.94995-13.25-5.24982-8.55-11.8501-8.55-5.54993,0-9.6499,6.35a18.42122,18.42122,0,0,0-3.05005,12.65,15.7393,15.7393,0,0,0,8.80005,11.6q14.9,7.45,27.04993-5.5,6.05-6.35,23.45007-36.95a41.67824,41.67824,0,0,1,6.6,25.9q-.24994,5.8,3.04992,6.9,3.05017,1.39992,5.5-2.2m67.55,90q.7-1.5-1.5-1.7-2.4-.35-2.55-1.35-.50005-5.24991-6.95-4.6-4.74993.55005-2.9-2.2a3.66877,3.66877,0,0,0,.35-3.35q-.50005-1.7-1.7-.85-.85015.50005-4.94995-.85-2.70007-1.2-2.8501,3.05-.19976,4.90008-7.1499,5.25-20.70007-.00009-48.3501,0,1.55017-7.15.20008-7.8a10.17429,10.17429,0,0,1-5.6-.85q-2.5501-1.05-3.25.65a20.7599,20.7599,0,0,0-.5,3.6q-1.20007,6.1-13.55005,4.55-11.89983-1.34994-11.9,3.05-.15,3.4,2.75,3.9.85.35,16.95007,1.7.50007,6.64992-11.20007,5.6-11.84985-1.2-11.7,5.6l-.35.85q-1.49982,3.55.19995,3.9.50007.2,18.45,1.55005.85.00009-6.25,21.35-7.44983,22.75-12.8999,31.2-13.4,14.25-14.95007,9.85,1.90008-4.55,3.25-8.15,2.70007-7.1-2.9-13.05-5.59991-6.09989-12.35-5.25-5.95.85006-10.2,6.6a18.82369,18.82369,0,0,0-3.9,12.4,15.67051,15.67051,0,0,0,6.45,12.05q5.74989,4.39992,15.45008,4.25a39.85688,39.85688,0,0,0,15.75-3.6q10.69995-4.8999,21.7-27.65a193.07706,193.07706,0,0,0,12.75-34.95,10.102,10.102,0,0,1,1.35-3.7,4.13432,4.13432,0,0,1,3.9-1.55q25.6.85,44.25.85,4.24987.3501,4.95007,1.2.50007.69991-.3501,3.4-10.00011,33.9-11.35,37.3-11.2,29.00007-23.1,28.85,2.75007-7.79992,2.9-12.55.50006-8-4.25-11.35-7.30005-5.3-14.6-.55-6.45007,4.45-9.15,13.6-2.54993,9.29993,1.54992,16.1,4.90009,7.65006,17.45008,7.45,18.50006-.3001,31.2-23.05,9.49987-16.45,18-50.05,1.55-6.8,2.9-8.15,1.7-1.5,8.30005-2.55.85,0,2.69995-.15a1.72848,1.72848,0,0,0,1.55005-2.05q.00018-1.34994-4.4-1.15-4.95007-.00009-5.95008-1.4,1.20007-2,5.95008-1,4.20007.85,4.75-1.5.50006-2.75-4.95008-3.25-5.1-.5-4.3999-2.9,1.35-4.55,8.6499-4.4,7.30024.00009,8.3-2.2m-27.15,4.6q-.65,3.55005-3.7,3.7h-23.75v-.3q-19.8501.29992-23.1.3-3.3499-.15006-3.20007-2.35.49987-3.4001,5.45007-3.55005,3.05-.20006,44.94995.15h2.35q1.35.15006,1,2.05m-44.6,76.5q-.50005,5.1-3.19995,6.25-5.5999,2.75-5.6001-4.75-.00018-7.3,5.9-6.75,3.24993.15,2.9,5.25m-76.35-12.2a15.29609,15.29609,0,0,0-1,6.75q-2.70007-3.7-1.5-7.3,1.00013-2.85,5.4-6.95-.99993,2.90011-2.9,7.5m7.5,9.45q-3.90015-2.00007-.35-8.8,3.75018-7.1,5.6-2.7a8.65318,8.65318,0,0,1-.70008,8.8q-2.54993,3.9-4.54992,2.7m-1551.75,33.7q-.95-1.65-3.8-1.4-5.2.90013-15.6,3.75h-3.8q2.15-4.00013,13-32.4.95-2.6001-.7-3.8-1.65-1.40013-4,.25l-4.25,3.1-1.2.7a33.10171,33.10171,0,0,0-9.45,10.4,84.046,84.046,0,0,0-8.05,14.45007,101.53083,101.53083,0,0,0-13.25-15.15,3.79948,3.79948,0,0,0-2.85-.7,49.68741,49.68741,0,0,0-7.3-6.15q-1.7-1.2-2.85-.5a2.51382,2.51382,0,0,0-.7,2.85l.45,1.4-.45-.45a2.08226,2.08226,0,0,0-2.65,0,1.7664,1.7664,0,0,0-.45,2.6l.25.45,4.25,5a1.5388,1.5388,0,0,0-1.9.95,1.72243,1.72243,0,0,0,.5,2.35,124.96326,124.96326,0,0,1,10.4,9.70008l4.25,5.65-1.9.25h-3.3a11.62481,11.62481,0,0,0-4.75.94995l-3.55-.44995q-2.6-.95013.95,1.6499-4.25,2.6001-2.85,3.55h-1.4a2.36276,2.36276,0,0,0-2.85,2.1,2.63318,2.63318,0,0,0,1.2,3.35l-10.65.20008q-2.6.50006-2.6,2.85t2.6,2.85l26,3.05-9.45,18.7q-.95,2.60008,1.2,3.8,2.1,1.4,3.75-.70008l.25-.25-.25.70008-2.35,4.25q-1.15,2.59991.7,3.79992a2.9312,2.9312,0,0,0,4.05-.5,56.1973,56.1973,0,0,0,5.9-7.29992,57.22232,57.22232,0,0,0,17.05-20.1l9.9,10.1499,6.9,9.45008a1.95682,1.95682,0,0,0,2.8.5,2.19852,2.19852,0,0,0,.75-3.1l-.25-.70007.45-.95,2.15,1.2q2.35.95013,3.55-.7a2.35758,2.35758,0,0,0-.5-3.55l-.2-.25-1.9-1.4a2.29623,2.29623,0,0,0-.25-2.6l-.25-.25q-4.7-6.15-10.85-12.79993l-1.65-2.3501,6.15-.25q3.05,0,3.05-2.85l4.5.5h.5a3.96131,3.96131,0,0,0,1.85-.5q1.45.24993,5,1.20007,2.8.50006,3.75-1.20007l.5-1.4,7.35-.25a2.8891,2.8891,0,0,0,3.05-2.79992q.25-2.6001-2.85-3.1-4.95-1.20007-13.95-2.6001l1.65-1.3999q1.9-1.90008,1.2-3.80005m-54.9-12.3-2.85-5.9,3.1,3.05,1.2,4.75-1.45-1.9m373.85-.35a25.92576,25.92576,0,0,0-5.1-5.3,28.95772,28.95772,0,0,0-8.15-8.4,89.27468,89.27468,0,0,1-9.25-7.3q0-.84989-1.15-.85-1.1,0-1.1.85a23.50355,23.50355,0,0,1-.85,5.75,38.93846,38.93846,0,0,0-1.1,5.75,59.49186,59.49186,0,0,0-1.55,15.20007l-.9,9.29993a2.27881,2.27881,0,0,0-.2,2.85q0,7.05012.2,8.6001h-.9q-2.6,0-2.6,2l-1.55.44995q-2.2-.65-2.65,1.1l-13.5,4.85-1.3-.8999a1.97639,1.97639,0,0,0-2.45,0,2.01012,2.01012,0,0,0-.65,2,38.93034,38.93034,0,0,0-9.05,3.54993q-6.15,2.85-9.25,3.95007a1.42657,1.42657,0,0,0-2,1.1q-.65,1.5498.9,2a164.80505,164.80505,0,0,1,18.1,8.79992l1.55,1.15a1.48306,1.48306,0,0,0,1.95.20007,81.011,81.011,0,0,1,13.05,7.69995,69.075,69.075,0,0,0,10.35,4,67.11445,67.11445,0,0,1,3.75,13.9,1.20473,1.20473,0,0,0,.25,1.75q.85,7.75011,1.75,24.95a1.31362,1.31362,0,0,0,.9,1.1,1.38868,1.38868,0,0,0,1.3-.2q.65.40008,1.1-.44995a90.401,90.401,0,0,1,14.15-15.70007,184.83241,184.83241,0,0,0,14.55-14.75,2.19291,2.19291,0,0,0,1.1,1.1l28.25,3.95008,8.6-.65a84.68723,84.68723,0,0,0,9.7-.19995.60634.60634,0,0,0,.9,0h1.3a1.37006,1.37006,0,0,0,1.55-1.55005q0-1.55-1.55-1.35l-1.75-.20008q-9.7-12.6-15.45-21.6499l-12.15-14.55005a50.348,50.348,0,0,1,5.1-9.25,84.28169,84.28169,0,0,0,5.7-9.3,75.21666,75.21666,0,0,1,6-10.35,78.89994,78.89994,0,0,0,2.85-7.95l1.35-.45008a1.56867,1.56867,0,0,0,1.5-1.75,1.89252,1.89252,0,0,0-1.3-2l.45-1.1a.83724.83724,0,0,0-.45-1.29993q-.65-.24994-1.1.6499l-1.35,2a59.162,59.162,0,0,0-12.8,2.20008q-5.5,1.29986-9.05,1.95-5.7,1.79993-8.35,2.65a47.85308,47.85308,0,0,1-8.6,1.35,42.64165,42.64165,0,0,0-4.2-5.95,44.55533,44.55533,0,0,1-4.85-5.3m7.95,14.1h-2l-8.4-10.35v-.9a40.49271,40.49271,0,0,0,4.65,5.1001,30.0192,30.0192,0,0,0,5.3,5.29993l.45.85m4.6,1.3501q.65-.7.25-1.1001a97.45018,97.45018,0,0,0,14.35-2.6499q3.3-.45007,8.8-1.80005l1.1-.44995a2.22836,2.22836,0,0,0-.65,1.54993q-3.75-.85-5.1.25-2.2,1.55-1.1,3.5a7.78442,7.78442,0,0,0-3.95.9q-3.75-2.65008-7.3-1.1l-1.3.65a6.71236,6.71236,0,0,0-4.2.44995l-.25.2-.65-.3999m-35.3-28.70007.25-5.95,2.4,2.65a2.0889,2.0889,0,0,0-1.75.85,2.22823,2.22823,0,0,0-.65,1.55l-.25.9m-.65,19.65-.25,1.30005v1.54993a2.48814,2.48814,0,0,0-.65,2.20007l-.85-.20007.85-11.25a28.74745,28.74745,0,0,0,2.65,3.5q-2.65.45007-1.75,2.9m3.95,13.45,3.75,3.75q.9,1.1001,5.1,7.05l-.65-.65a67.8238,67.8238,0,0,1-8.2-10.15m5.55,12.55a57.60179,57.60179,0,0,0,5.05,4.45,13.37546,13.37546,0,0,1,3.55,4.6001,81.278,81.278,0,0,1-8.6-9.05005m-27.6,4.2,1.55,2.9-2.45-2.45.9-.45008m9.95,12.8-2.45-3.1a77.72409,77.72409,0,0,1,7.05,9.04992,23.90159,23.90159,0,0,0,2.65,2.65q1.55,1.55.25,2.25-.45.40008-.7-.7a3.38815,3.38815,0,0,0-.65-1.95008l-3.1-3.75a40.556,40.556,0,0,0-3.05-4.45m-10.15,3.75,1.1,1.55005q-8.4-9.9-13.25-14.55005l1.3-.19995a144.94377,144.94377,0,0,0,10.85,13.19995m6.8,8.4.25-.65v-.9a17.32261,17.32261,0,0,0,3.95,2.85q1.55.9,2.2.25l.9,1.1001.9.6499a2.23673,2.23673,0,0,0-1.55.25l-6.65-3.54992m17.45-7.3.2-.85,9.05,9.25a23.50573,23.50573,0,0,1,4.2,5.1q-5.7-4.20007-13.45-13.25v-.25m-2.2,7.75,2.2,2.85-2.65-1.75.45-1.1m1.55-16.79993q1.75,1.55,5.95,5.1,9.04993,8.59991,22.05,22.5v.45l-3.05-.9a14.04054,14.04054,0,0,0-3.35-4.2q-3.95-3.50005-4.4-3.94995l-.65-.65a27.14188,27.14188,0,0,0-3.3-4.20008l-13.25-14.1499m21.4-6.15-.9-.25-2.65-1.95008-1.95-2-.45-.8999a2.22836,2.22836,0,0,0,1.55-.65,12.8088,12.8088,0,0,0,3.3,2.85,8.2122,8.2122,0,0,1,1.1,2.9m3.95-2.20008.9,1.1001-.9.19995-.2-1.1.2-.20008m-3.05,14.75-5.75-5.29992.2-.65.25-1.55a42.56059,42.56059,0,0,0,9.25,8.4,2.92649,2.92649,0,0,0-1.55.9l-2.4-1.8m29.1,4.45008-1.75-1.1-.45-1.55005-.2-.44995,2.4,3.1m-11.25-13.05-2.2-1.54993a37.012,37.012,0,0,1-4.85-5.5,31.88173,31.88173,0,0,1,3.95,3.75q2.65,2.00006,3.1,3.29993m-90.9,1.55.85.9-3.5-1.3501,2.4-.6499q-.65.64985.25,1.1m9.5-3.3,1.1-.2,6.15,7.25a36.67123,36.67123,0,0,1-7.25-7.05m-5.55,1.1,2-.45,5.75,7.95-.7-.45-7.05-7.05m18.35,11.9.4.45007-3.05-1.55005-.45-1.55a15.08025,15.08025,0,0,0,3.1,2.65m46.55,21.65,4.4,1.55005-2.45,2.3999a12.50113,12.50113,0,0,0-1.95-3.95m-4,9.25a2.27225,2.27225,0,0,0,.7-2.4,3.79751,3.79751,0,0,0,2.85.20007l-8.6,9.94995a4.77793,4.77793,0,0,0-.45-2.65q.45-.7,0-3.29993,1.55.64985-.45-1.3501l.25,1.3501a21.20868,21.20868,0,0,1-4.9-4.45007l4.65,3.1-.2-.45.2.25q3.75,1.74995,5.95-.25m17.9-7.05.65-1.75a10.2893,10.2893,0,0,0,3.75,1.95008l-4.4-.20008m-29.8-2q-4.2-4.19988-7.05-6.85a2.22837,2.22837,0,0,0-1.55-.65,2.31628,2.31628,0,0,0,.45-1.75l3.5,3.1001a122.34089,122.34089,0,0,1,11.7,10.79993,15.16219,15.16219,0,0,0,1.55.9q.9.2.45.65-.25.19995-.45-.25-.45-.65-.65-.65a34.4423,34.4423,0,0,1-7.95-5.3m1.75,13.45008.25.25a9.33668,9.33668,0,0,0,1.75.9l-.9.3999-1.1-1.54992m.9,6.85a1.96173,1.96173,0,0,0,1.3-1.75,6.81977,6.81977,0,0,0,1.55-.19995l-2.85,3.29993-.25-1.1.25-.25m-1.1,2.65-.65.7-.25-.7h.9m-3.55-7.70008-.65-1.35.65.45007a22.35968,22.35968,0,0,0,2.65,1.54993q1.35.90013.45,1.35l-.65.20008-2.45-2.20008m-.65,9.5,2,.8501-1.55,2-.45-2.8501m-2.85-4v-.6499l1.1.6499a1.55109,1.55109,0,0,0-1.1,0m1.1,8.15h1.3l-1.75,2.45007-.25-2.65.7.2m69.95-28.65-.45-1.79992,4.65,5.29992-5.1-.6499a6.67858,6.67858,0,0,0,.9-2.8501m-7.1-3.1a4.69478,4.69478,0,0,1,2,3.55l-.2.2q-.25-.9-2-1.54993v-.65q-.9-1.99989-4.4-3.3l1.1-.7a26.23275,26.23275,0,0,1,3.5,2.45m-151.3-117.75a18.01473,18.01473,0,0,0-12.95-.5,16.76482,16.76482,0,0,0-9.9,7.75l-1.2-.5a1.822,1.822,0,0,0-2.6,1.1,1.71812,1.71812,0,0,0,1.1,2.6l1.3.6a2.37462,2.37462,0,0,0,1.6,2.3,2.42379,2.42379,0,0,0,2.75-.5,114.95978,114.95978,0,0,1,19.2,9.75,72.22727,72.22727,0,0,1,16.1,14.7l-.2.3a3.86375,3.86375,0,0,0-5.45.1,16.27141,16.27141,0,0,0-5.6,11.05,14.75241,14.75241,0,0,0,3.5,11.6q3.1,3.50007,6.35.1001a36.83141,36.83141,0,0,0,6.6-8.95007,29.88876,29.88876,0,0,0,2.75-10.6,4.19818,4.19818,0,0,0-1.6-3.9,4.7394,4.7394,0,0,0-3.75-1,85.14562,85.14562,0,0,0-16.4-15.9,105.84348,105.84348,0,0,0-19.5-10.75,8.63476,8.63476,0,0,1,6.55-2.95,16.79679,16.79679,0,0,1,7.95,1.35,27.22361,27.22361,0,0,0,10.05,2.6,29.58851,29.58851,0,0,0,10.05-1.7,1.60754,1.60754,0,1,0-1-3.05q-3.55,1.1499-7.85-1a65.82782,65.82782,0,0,0-7.85-4.6m329.65,3.05a89.98521,89.98521,0,0,1-9.95-1q-3.94995-.7-10.05-2.3-4.55-2.34989-6.55-3.55a36.25,36.25,0,0,1-5.95-4.5q-1.9-1.79992-3.6-.6a6.06545,6.06545,0,0,0-2.15,3.9q-4.6,17.1-5.1,18.4a30.536,30.536,0,0,1-10.25,14.3l.19995-1.4q-.19995-6.65013-10.5-6.15-10.25.5-12.75,6.85a3.68736,3.68736,0,0,0,1.6,5.1,35.93847,35.93847,0,0,0,8.95,4.55,20.03377,20.03377,0,0,0,9.75.2q3.15-.7,3.65-2.9,7.65-4.95,11.65-15.3,3.54994-12.69991,5.55-19.2a57.60109,57.60109,0,0,0,12.05,9.05,150.60129,150.60129,0,0,0,20.85,4.5q-3.45,8.65008-8.25,18.7-2.75,5.85-8.95,18.45a3.98567,3.98567,0,0,0-1.75-1.75,18.19567,18.19567,0,0,0-10.15-1.8,12.95708,12.95708,0,0,0-8.75,4.3501q-3.29993,3.9.9,6.6a25.25354,25.25354,0,0,0,9.15,4.04992,25.78316,25.78316,0,0,0,9.9.1001,4.16974,4.16974,0,0,0,3.5-2.6001,4.58026,4.58026,0,0,0-.3-4.04992q13.04992-27.24994,21.3-45.25,1.4-2.90013.3-4.65-1.1-1.9-4.3-2.1m-63.35,22.45a4.87265,4.87265,0,0,0-.55005,2.7,24.62451,24.62451,0,0,1-2.6-.9,7.6875,7.6875,0,0,1,3.15-1.8m373.55,2.9a13.69225,13.69225,0,0,0-3.8-2.5q-7.2-4.44991-8.25-5.2a92.17849,92.17849,0,0,0-8.9-4.4,46.94368,46.94368,0,0,0-10.7-5.3,59.09531,59.09531,0,0,1-10.7-4.95q.3-1.70006,1.30005-20.15,1.25005-19.25,2.65-26.9a61.26074,61.26074,0,0,0,1.15-9.8l1.85-1.1a.65089.65089,0,0,0,.35-1,.77274.77274,0,0,0-1.05005-.5l-1.15.65.05-2.6q-.05007-.3-.3-.3a.35355.35355,0,0,0-.4.4,16.812,16.812,0,0,1-.3,3.1,30.34824,30.34824,0,0,0-5.3,4.05q-4.4,3.85-5.5,4.75-8.1,6.25-10.35,8.15a1.50074,1.50074,0,0,0-1.05.94995,78.77272,78.77272,0,0,0-9.05,9.4q-1.8,2-5.4,5.65-2.95,3.2-4.85,5.55-9.15-3.05-17.65-6.55-10.05-4.40013-16.69995-7.30005a82.96444,82.96444,0,0,0-7.9-3.05,29.62333,29.62333,0,0,0-8.3-1.35q-.4-.3-.9.15a.9712.9712,0,0,0-.6,1.2,1.18885,1.18885,0,0,0,1.2.85q3.75009,6.4,9,22.65,4.8499,15.8,5.44995,17.7,1.45,3.4,4.05005,8.55a56.22148,56.22148,0,0,1-8.1,8.85q-7.79993,6.8-9.1,8.1-9.7,9.25-15.8,15.30005l-2.9,3.04993a1.54211,1.54211,0,0,0-.45,1.35,2.00433,2.00433,0,0,0,.7,1.20008.63671.63671,0,0,0-.4.85q.15006.7.9.45,8.5-1.7,30.15-2.1499,20.3-.50006,22.19995-1.1001l.30005-.25a1.38013,1.38013,0,0,0,1.5.8501,88.22,88.22,0,0,0,6.5,18.79993q2.25009,4.90008,9.9,17.95007.95,1.5,3.45,6.6a26.60036,26.60036,0,0,0,3.85,6.15,1.345,1.345,0,0,0,1.85.29993,1.53394,1.53394,0,0,0,.8-1.79993l.15-1.4a1.18527,1.18527,0,0,0,.19995-1.25l1.80005-11.35a.98394.98394,0,0,0,1.15-.8501,1.20224,1.20224,0,0,0-.75-1.45l.45-2.9.1-.1.25-1.69995,1.2,1.29993a.6835.6835,0,0,0,1.05.20007.82714.82714,0,0,0,.15-1.15l-1.85-2.5,2.35-10.70008q2.19993-8.75005,6.7-22.35a1.59271,1.59271,0,0,0-.1-1.45q9.7-1.55,28.75-5.35,17.85-3.7,22.55005-5,5.09994-1.2,6.1-1.5a1.55107,1.55107,0,0,0,1.2-2.2l1.9.3a.27823.27823,0,0,0,.30005-.25q-.05-.20006-.2-.2a11.15911,11.15911,0,0,1-2.45-.65,1.57978,1.57978,0,0,0-.9-.4,32.26794,32.26794,0,0,1-3.4-2.4m-1.9,3-1.65.1q-9.55,2.75-22.7,6-19.8501,4.95-29.2,6.25l-.45.2a43.52115,43.52115,0,0,0-5.75-7.65q-6.85-6.35-11-10.55l-1.6-1.6q7.04992,1.44992,27.2,4.15,19.95.00009,23.35.15a122.91228,122.91228,0,0,1,21.8,2.95m-121.4-55.25a13.65663,13.65663,0,0,1-1.9,1.15l-2.25-4.55005,4.15,3.4m-.1,5.15-1.1-2.5.05-.05005a3.96782,3.96782,0,0,1,1.8-.25l1.9.1,1.4,1.4a10.42879,10.42879,0,0,0-4.05,1.30005m.35.69995a3.65012,3.65012,0,0,1,1.9,0l1.85.6a8.04506,8.04506,0,0,0,2.05-.25l.8.9-1,.05005a13.868,13.868,0,0,0-4.55,1.19995l-1.1-2.5h.05005m5.8,3.8q2.00005-.10008,2.9-.05l.95,1.05-7.3-.05-.45.1-.45-1.25a8.34271,8.34271,0,0,1,2.1-.05,8.81244,8.81244,0,0,0,2.25.25m-6.55-14.15q2.65,1.1,8.35,4.15,6.75,2.84994,16.9,7.44995,9.00009,3.9,17.94995,7,.55,4.25,1,14.65a91.95418,91.95418,0,0,0,1.80005,14.2q-.35-.24993-3.2-2.45a.87513.87513,0,0,0-.9-.85q-3.85-3.40009-9.35-9.25-5.9-6.35-7.9-8.5a.39069.39069,0,0,0-.35-.35l-1.65-1.7q-3.05-3.05-7.5-8.3a1.98863,1.98863,0,0,0-.5-.65q-5.05-6.05-6.7-7.8a67.86182,67.86182,0,0,0-7.94995-7.6m8.9,18.8q-.45,0-1,.05-.1-.00009-.2,0a3.82824,3.82824,0,0,0-1,.15,12.16192,12.16192,0,0,1-2.35.15l-.7-1.7a32.629,32.629,0,0,0,3.5.2l-.25-.35.3.4q1.05.05,1.95.1l3.2-.15,1.7,1.9a3.70879,3.70879,0,0,0-1.1-.25q-2.59992-.3999-4.05-.5m-2.55,5.45-1.3-3.55a37.49663,37.49663,0,0,0,3.8.45l.05.05a2.37377,2.37377,0,0,0,.55.05q.5.1,1.30005.25a7.95159,7.95159,0,0,0,2,.05,16.95965,16.95965,0,0,0,3.15.15l2.6,2.85a19.69193,19.69193,0,0,0-3.15-.45,18.85308,18.85308,0,0,0-4,.2h-.1a6.06562,6.06562,0,0,0-.75.05,9.57149,9.57149,0,0,1-3.2-.4.80853.80853,0,0,0-.95.3m.35,1.4a.44455.44455,0,0,1,.2.05,33.50579,33.50579,0,0,0,4.75,1q.6.05,1.3.1,1.05.10007,2.2.15a39.07386,39.07386,0,0,0,5.4-.35l1.7,1.85h-4.25q-1.95,0-4,.05-.74991-.05008-1.5-.1-.5.00009-1,0a7.07078,7.07078,0,0,0-1.75.45,7.54233,7.54233,0,0,1-1.6.25l-1.45-3.45m1.80005,4.2a18.727,18.727,0,0,0,2.9.45h2.1q.55.05,1.3.15a.9977.9977,0,0,0,.45,0,15.414,15.414,0,0,0,2.75.05q2.45-.05008,6-.2l1.8,2a14.96512,14.96512,0,0,1-2.05-.05,18.3169,18.3169,0,0,0-2.25-.05,19.2227,19.2227,0,0,1-4.30005.1,6.44422,6.44422,0,0,0-.8.05,7.28228,7.28228,0,0,0-1.85.15q-.55005.1-1.1.25a19.0412,19.0412,0,0,1-3.6.8l-1.35-3.7m2.9,8.25-1.25-3.55a47.31365,47.31365,0,0,1,5.65.35q.54994.05,1.15.15.55.05,1.25.05.55-.05,1.15-.1,2.15-.19995,2.4-.25a23.38679,23.38679,0,0,1,2.5.05,10.85119,10.85119,0,0,0,2.65-.2l1.1-.05,4.65,4.8a15.049,15.049,0,0,1-3.2-.9,20.52206,20.52206,0,0,0-3.19995-.9,31.41746,31.41746,0,0,1-4.45-.35q-1.15.05-2.25.1.9,1.45,1.8,2.8a.44366.44366,0,0,1,.2-.05,34.36525,34.36525,0,0,0,4.55.45,16.612,16.612,0,0,0,3.25.1,15.51856,15.51856,0,0,1,3.55,0,.50009.50009,0,0,0,.65-.35l3.3,3.15-11.3-.75q-1.30005.05-2.5.05.94995,1.65,1.9,3.05a4.30177,4.30177,0,0,0,.7.05l6.55.2a31.082,31.082,0,0,0,7.25-.05l2.85,2.3q-2.35008-.1-7.6-.75a51.27648,51.27648,0,0,0-8-.5q-.45.05009-.9.1-2.45006.10006-3.75.2-1.65.10007-1.8.1a42.55577,42.55577,0,0,1-6.5-.4l-.85-2.55q1.8501.1,6.25.8a14.90308,14.90308,0,0,0,1.95.25l-1.35-2.8q-4.2-.05-7.2-.15l-.65-2.95a23.00971,23.00971,0,0,1,4.8,0q.85007.15,1.55005.25l-1.2-2.35a55.65477,55.65477,0,0,0-5.65.6m67.45-52.55a46.21337,46.21337,0,0,0,3.25-3.75,46.86992,46.86992,0,0,0-2.55,5.45l-.15-.95q.15-.6-.55-.75m-3,2.75.9-.85a6.39965,6.39965,0,0,0,1.1-1.05.09877.09877,0,0,1-.05.15,18.48446,18.48446,0,0,0,.5,3.55,27.577,27.577,0,0,1-1.8,4.05005,41.94129,41.94129,0,0,1-.65-5.85m8.5-7.8a50.06666,50.06666,0,0,0-1.9,6.4q-1.25007,6.59994-2.55,22.55-1.1499,17.1-1.5,21.95-9.75,6.95-27.75,17.85,3.95-6.65,5.3-9.25,8.2-16.5,20.7-41.7l1.55-3.3a79.50787,79.50787,0,0,0,3-7.55,26.76,26.76,0,0,1,3.15-6.95m-18,19.1q-.55005-1.75-.8-2.55l2.9-2.7a3.97252,3.97252,0,0,0,.25,1.7l.05005,3.4a23.505,23.505,0,0,1,.15,5.4q-.25,1.40012,1.3,1.65l-1.85,3.35a6.76456,6.76456,0,0,1-1.1-3.6l-.15-3.7a16.58031,16.58031,0,0,0-.75-2.95m5.8-.25-.05-3.8-.95-3.55,2.7-2.2q-.05007,4.8.15,7.65a1.41442,1.41442,0,0,0,.4.95l-2.3,4.4q.05008-2.2.05-3.45m-10.25,5.65q-.75-2.05005-1-3l2.25-2.55.5,3.5q.4,3.19995.65,4.65a10.21779,10.21779,0,0,0,1.75,4.30005,1.82514,1.82514,0,0,0,.8.55l-2.95,5.45a14.33183,14.33183,0,0,0-.5-3.85,22.93329,22.93329,0,0,0-.2-2.8,11.7975,11.7975,0,0,1-.35-2.95,16.12379,16.12379,0,0,0-.95-3.3m-4.85,1.35.25-.25,2.05-2.4a28.087,28.087,0,0,0,.25,4.8,10.75392,10.75392,0,0,0,.4,2.95,28.04515,28.04515,0,0,1,.19995,3q.3,1.04993,1,6.55a1.49967,1.49967,0,0,0,.45.95l-2.1,3.9a55.54228,55.54228,0,0,1-.7-7.7,27.99626,27.99626,0,0,0-.45-5.05,28.90981,28.90981,0,0,0-1.35-6.75m-1.8,2.05005-.2,4.95q.3999,4.2.45,5a54.57816,54.57816,0,0,0,2,10.25q-.35.65011.25.75l-2.15,4a34.08469,34.08469,0,0,0-.55-8.65,27.3809,27.3809,0,0,1-.4-4.2l-1.7-10.05,2.30005-2.05m-8,7.65a23.41985,23.41985,0,0,1-.2,3.55,25.54552,25.54552,0,0,0-.55,3.6l-.65-5.4,1.4-1.75m4.3,4.65a21.49219,21.49219,0,0,0,.35,4.3,35.93775,35.93775,0,0,0,1.05,5.1,13.54269,13.54269,0,0,1-.05,4.8,1.33384,1.33384,0,0,0,.2,1.15,1.49977,1.49977,0,0,0,.95.45l-2.75,5.4q-.3501-2.45006-.9-7.4-.3999-3.85-.8-9.4a42.48371,42.48371,0,0,0-.95-10.6l3.2-2.95a22.97925,22.97925,0,0,1-.4,4.4,21.93823,21.93823,0,0,0,.1,4.75m-4.75,16.75q-.15-3.2-.15-9.65,0,.24993.6,7.15,1.39993,7.3,1.69995,9.8l.5.85-1.25,2.2a61.11043,61.11043,0,0,1-1.4-10.35m32.2-.55a1.57316,1.57316,0,0,0,1.65-.15l2.6,1.7q.75009,1.45,1.85,3.7a29.47879,29.47879,0,0,0,2.3,3.55,25.42323,25.42323,0,0,0,3.8,5.55,3.75067,3.75067,0,0,0,1.4.85,14.76876,14.76876,0,0,1,1.4,1.1.76337.76337,0,0,0,1.25,0,.78189.78189,0,0,0,.05-1.25,5.10123,5.10123,0,0,1-1.05-1.5,15.48211,15.48211,0,0,0-1-1.3,10.42915,10.42915,0,0,1-1.85-2.4,26.02916,26.02916,0,0,0-1.45-2.8q-2.05-2.35006-2.9-3.5l4.85,2.3q.3501.69992,1.05,2.45a14.17878,14.17878,0,0,0,1.30005,2.75q.7,1.25007,1.85,3.35l1.9,2.65-9.15-.6a1.18927,1.18927,0,0,0,.15-1.75,5.09336,5.09336,0,0,1-1-1.8q-.65012-1.3-1-2a36.77194,36.77194,0,0,0-3.30005-5.3,20.46147,20.46147,0,0,0-2.5-2.75,13.99486,13.99486,0,0,1-2.19995-2.85m-2.80005-.4a.57018.57018,0,0,0,.1.5,16.80738,16.80738,0,0,0,2.05,3.9q.85,1.09991,2.7,3.5a39.04261,39.04261,0,0,1,3.2,5.15q1.05,1.5,2.6,3.8l-3.55-.15q.3999-.4-.15-.95a8.51955,8.51955,0,0,1-1.4-1.85q-.90006-1.2-1.5-1.85-1.49991-1.85-2.55005-3-1.34994-2.14993-4.9-6.95l3.4-2.1m23.65,10.7q.35,1.1,1,3.45a7.384,7.384,0,0,0,1.45,2.05q.54994.55,1.85,1.8-1.85-.25-2.85-.45a10.61316,10.61316,0,0,1-1.3-2.1,6.59677,6.59677,0,0,0-1.2-2.25l-1.9-3.35-1.3-1.6,4.25,2.45m3.95,2.25-.2-.25,3.05,1.5q1.20007,2.8,1.4,3.15a14.8881,14.8881,0,0,0,1.2,1.35l-3.75-.55a.89368.89368,0,0,0,.1-1.55,6.81071,6.81071,0,0,1-1.1-1.7q-.45-1.25-.7-1.95m7.5,4.95-.8-1.5q.55.25,6.3,3.9l-5.5-1.2a1.116,1.116,0,0,0,0-1.2m-35.65-7.3q1.1001,1.2,2.75,3.35a8.52323,8.52323,0,0,0,1.85,1.4,18.68986,18.68986,0,0,1,1.75,1.5l-4.9-.1-.3-.5a56.623,56.623,0,0,0-4.25-5.85,25.64148,25.64148,0,0,1-3.65-5.9l2.2-1.25a63.58882,63.58882,0,0,1,4.55,7.35m-10.4-4.05,2.6-1.5a74.32458,74.32458,0,0,0,5.55,11.3l-2.15-.2a8.18343,8.18343,0,0,0-.6-1.6,6.54029,6.54029,0,0,0-.95-1.6l-1.69995-3.15a5.09805,5.09805,0,0,0-1.30005-1.8q-1.15-1.2-1.44995-1.45m-.6,2.6a8.28422,8.28422,0,0,0,.8,2l2,3.55,1.30005,1.25-2.9-.25-.3-.3a13.55053,13.55053,0,0,1-1.65-2.5q-1.45-2.45006-2.65-4.1l2.55-1.5a6.38674,6.38674,0,0,1,.85,1.85m-6.55,1.25,1.6-.85a10.62141,10.62141,0,0,1,.95,2.3,13.17507,13.17507,0,0,0,.95,2.4l.8,1.15-1.45-.15a28.09088,28.09088,0,0,0-1.35-2.85l-1.5-2m-1.75,4.35-1.65-2.45,1.55005-.95,2.19995,3.75-2.1-.35m-4.8-.6,1.45-.85.8,1.2-2.25-.35m-16.85-.3q5.1.65011,7.65.75a46.82689,46.82689,0,0,0-5.75,2.1q-1.65.7-5.3,2.4,3.50005,5.4,3.75,5.6a13.86318,13.86318,0,0,0,4.9,1.4,9.9805,9.9805,0,0,1-1.65,2.6l-.1.2-4.69995-2.7a24.3356,24.3356,0,0,0-4.6-1.8l-1.7-3.25q-5.7,2.89992-14.35,7.5-20.35,10.7-32.05,17.7l.5-.54993q6.1-6.05,15.8-15.30005,6.90006-6.90006,8.5-8.7a104.351,104.351,0,0,0,7.8-9.35h.05a75.178,75.178,0,0,0,9.85.85q1.8999.05,3.5-.05a5.7368,5.7368,0,0,1,.7.05,55.82716,55.82716,0,0,1,7.19995.55m8.15,6.55-1.9-1.15-.35-.1,3.1-1.45a.41568.41568,0,0,1,.4.1.29835.29835,0,0,0,.3-.05l-1.55,2.65m-6.2,1.65-1.15-.6,2.35-1.05a3.82365,3.82365,0,0,0,1.65,1.7l1.85.85-.65,1.65a11.27773,11.27773,0,0,1-2.05-1.25,6.966,6.966,0,0,0-2-1.3m7.35,2.25a40.624,40.624,0,0,0,2.05-4.25,215.96173,215.96173,0,0,0,2.05,24.4q2.25,17.15,2.85,21.65l.75,6.5a1.31407,1.31407,0,0,0,.1,1.3q.64992,6.54986,1.05,9.29992a87.979,87.979,0,0,0,2.45,10.15,28.09638,28.09638,0,0,1-2.35-5.25,33.32248,33.32248,0,0,0-2.65-5.7q-7.74995-12.49989-10.8-18.3a70.44635,70.44635,0,0,1-7.05005-19.9l-.1-.1499a21.39214,21.39214,0,0,1,2.25-4.55005l.45.1q.3999-.25013.1-.35l-.3-.19995,4.6-6.65a1.88713,1.88713,0,0,0,.55005-.9l.6-1a10.48415,10.48415,0,0,0,2.05-2.95q.2-.6,1.35-3.25m4.55,2.8-.3-4.6a46.82226,46.82226,0,0,1,6.25,6.7q4.05,5.05,6.3,7.3l1.3,1.25-.5-.44995q-2.19992-1.9-3.6-3.05005-2.90012-3.1-4.35-4.35a13.66488,13.66488,0,0,0-5.1-2.8m-.3-8.85,1,1.2q4.15,4.2,11,10.55a42.43055,42.43055,0,0,1,6.15,7.45l-.2.3501-3.44995-3.25006q-4.9001-5.00007-7.15-7.15-3.65-3.45-7.35-6.4v-2.75m.75,13.9-.30005-2.7a9.663,9.663,0,0,1,3.7,3.15q2.6001,3.5,3.25,4.20007,1.5,1.1999,3.95,3.19995,1.65006,1.4,4.2,3.2l.6.4-.7,2.20007-4.55-4.55005a60.48939,60.48939,0,0,0-5.05-3.94995,15.25349,15.25349,0,0,1-4.2-4.55005q-.29993-.69991-.9-.6m.4,3.7a24.79323,24.79323,0,0,0,3.5,3.70007q3.3,2.89985,4.2,3.75l3.4,3.3999a6.62924,6.62924,0,0,0,1.44995,1,1.02268,1.02268,0,0,0,1.15.25l-.45,1.9q-1.1-1.09992-1.45-1.4l-3.19995-2.29992a48.9731,48.9731,0,0,0-4.15-2.85,30.348,30.348,0,0,1-3.9-2.75l-.55-4.70007m-15.1-1.75a.86827.86827,0,0,0-.4-1.4,8.91582,8.91582,0,0,1-2.2-1.65,17.2765,17.2765,0,0,0-2.1-1.65,13.39819,13.39819,0,0,0-3.35-1.25,10.73033,10.73033,0,0,1-3.15-1.1l3.2-1.5a59.50968,59.50968,0,0,1,5.25,3.85l4.7,2.45-3.6,5.8q-1.55-1.20007-1.9-1.4a10.15918,10.15918,0,0,1-2.95-1.35q-1.74995-1.2-2.7-1.85a16.80919,16.80919,0,0,0-4.3-1.65,18.53016,18.53016,0,0,1-4.35-1.3l4.95-2.15a48.16325,48.16325,0,0,0,6.65,4,45.99476,45.99476,0,0,0,4.95,2.55q.95.5,1.3-.4m15.95,8.4q.3.30011,2.55,3.30005a20.80352,20.80352,0,0,0,3.05,3.25l3.25,2.25a9.74167,9.74167,0,0,0,2.15,1.1499l.6.3-.45,2.4-.05-.05a15.30737,15.30737,0,0,0-3.6-3.15q-2.3-1.74993-3.7-2.8999a13.30014,13.30014,0,0,0-1.8-.75,3.84554,3.84554,0,0,1-1.45-1.25l-.55-4.55005m1.1,8.45.75.65q1.3,1.15008,3.75,2.95007a14.80789,14.80789,0,0,0,2.05,1.1,11.545,11.545,0,0,1,2.15,1.1.88279.88279,0,0,0,.95.25l-.4,1.9-1.1-.8-2.9-1.7a16.65345,16.65345,0,0,1-3.35-2.05,1.31065,1.31065,0,0,0-1.5-.45l-.4-2.95008m3.65,8.15,2.85,1.85,2.15.95008-.55005,3.45-2.5-2.29993a13.14251,13.14251,0,0,0-2.15-1.65q-1.45-.90015-2.25-1.5l-.3-2.5a12.52156,12.52156,0,0,0,2.75,1.7m4.05,8.70007-.3,1.8999-.30005-.29992a11.62727,11.62727,0,0,0-2.55-1.75,5.29417,5.29417,0,0,1-2.2-2.05l-.3-.25-.2-1.54993,1.7,1.6a8.81284,8.81284,0,0,0,2.15,1.35l2,1.05005m-4.7,7.6a15.33782,15.33782,0,0,0,3.55.7l-.15,1.6a15.23828,15.23828,0,0,1-1.80005-1.5,1.148,1.148,0,0,0-1.5-.25l-.1-.54992m3.75-.5a17.34416,17.34416,0,0,1-3.9-2.5l-.5-4.20008a36.53743,36.53743,0,0,0,3,2.95008l1.75,1.5-.35,2.25m-3,5.29992-.3-.25-.15-1.54992q.5.59985,1.4,1.75a4.49536,4.49536,0,0,0,1.25.79992l-.1,1.3-.1-.15a19.35778,19.35778,0,0,1-2-1.9m.65,3.8a.95539.95539,0,0,0,1.19995.05005l-.69995,4.85q-.5-2.49994-.95-5.25l.45.35m-48-49.65.25.2a19.01085,19.01085,0,0,0,4.25,2.75006q1.45.75,4.55,2.35a17.60715,17.60715,0,0,0,3.9,1.85l4.05005,1.6a9.87124,9.87124,0,0,0,3.05.5.28973.28973,0,0,0-.2.05,54.28664,54.28664,0,0,1-6.25.79992,1.23243,1.23243,0,0,0-.85-1.3999l-2.15-.9q-2.9-1.24989-7.25-2.95008-4.7-1.84991-7.25-2.99994l3.9-1.85m-10.2,5.05.25.1a7.27,7.27,0,0,1,2.3.80005q.65.3999,2.15,1.25,4.39993,2.6999,6.5,3.85l-5.05005.29992q.45-.85-.3-1.25l-1.7-1.25q-2.8-1.1499-3.55-1.35a6.073,6.073,0,0,0-1.8-.54993,7.66541,7.66541,0,0,1-1.8-.45007l3-1.45m-4.2,2.25a21.70623,21.70623,0,0,0,4.1,2.1,28.16536,28.16536,0,0,1,3.25,1.25l1.45.85-5.5.35q.3-.64985-.5-1.04992l-1.8-.85a20.1121,20.1121,0,0,0-3.7-1.3501l2.7-1.29992m.6,4.79992-1.25.1001q.2-.55005-.44995-.9-.4001-.20014-1.75-.95008l-1.9-.7.95-.4a4.027,4.027,0,0,1,1.85,1.25,9.47865,9.47865,0,0,0,2.05,1.45007l.5.1499m17.5-2.6-1.55-1q-1.55-.79982-6.35-3.7a15.08805,15.08805,0,0,0-3.3-1.20008l3-1.25a53.69351,53.69351,0,0,1,7,3.95008,52.84922,52.84922,0,0,0,7.1,4.15l-5.35.29993a1.5844,1.5844,0,0,0-.55005-1.25m11.75-7.9q1.2.8,3,1.9a12.68248,12.68248,0,0,0,3.25,1.55,3.68946,3.68946,0,0,0,2.15.35,32.28393,32.28393,0,0,0-1.35,3.1q-1.2-.9-1.95-1.35a17.8777,17.8777,0,0,0-2.45-1.15q-2.7-1.00013-3.9-1.5a21.58638,21.58638,0,0,1-3.65-1.75,46.31959,46.31959,0,0,0-4.35-1.7,16.52309,16.52309,0,0,1-4.15-2.1l4.7-2.25a.88634.88634,0,0,0,.55.7q1,.55005,4.15,2,2.3,1.15,4,2.2m6.15,7.8.6.1-.15.4-.45-.5m-43.1,1.6.9-.6q.85006.65,2.3,1.80005l.5.29993-.94995.05q.15-.29994-.25-.5l-1.05005-.70008a3.18514,3.18514,0,0,0-1.44995-.35m.1,1.70007-2.25-.5,1.3-.75,1.65,1.1.65.1-1.15.15-.2-.1m306.4-45.35a1.06361,1.06361,0,0,0-1.5-.45.95843.95843,0,0,0-.70008,1.35,27.53169,27.53169,0,0,1,1,5.65,45.8,45.8,0,0,0,1.05,5.65,69.58722,69.58722,0,0,0,3.7,14.85q1.35,4.30005,3,10.95a56.49442,56.49442,0,0,0,3.8501,10.1001,27.66661,27.66661,0,0,0-4.9,3.1q-5.35,5.04986-30.85,26.6-1.5-.15-1.5,1.45,0,1.65,1.5,1.65a92.80717,92.80717,0,0,1,10.04993.9q3.15015.4499,9.95007,1.35a68.71861,68.71861,0,0,1,18.54993,2.8,77.01915,77.01915,0,0,0,11.15.15,70.64467,70.64467,0,0,1,10.7,17.04993q2.65009,5.65008,8.45008,18.85a1.1674,1.1674,0,0,0,1.2.75,2.24856,2.24856,0,0,0,1.15-.6.80406.80406,0,0,0,.9-.6,92.9369,92.9369,0,0,1,7.75-19.55,200.39565,200.39565,0,0,0,8.75-18.85.95279.95279,0,0,0,1.29992.6l27.75-5.79992a85.97468,85.97468,0,0,0,8.05-3.70008q2.95-.9,8.9-3.45l2.04992-.75a1.36833,1.36833,0,0,0,.9-1.9,1.38733,1.38733,0,0,0-1.9-.9l-1.6499.6001q-3.7-2.80005-10.70007-7.30005-6.65-4.45-11.25-7.85-9.7998-5.80005-16.2-9.35a44.71741,44.71741,0,0,1,1.5-10.4,110.003,110.003,0,0,0,2.2-10.8,70.0695,70.0695,0,0,1,2.1-11.75,58.202,58.202,0,0,0,0-8.45l1.20008-.75a1.61935,1.61935,0,0,0,.7-2.2,1.955,1.955,0,0,0-1.9-1.5l.15-1.05q.15015-.90006-.9-1.05-.9-.15-1.04992.9l-.3,2.25a56.32669,56.32669,0,0,1-5.6,3.1,43.35985,43.35985,0,0,0-5.8,3.55,21.60175,21.60175,0,0,0-3.85,2.4,38.6538,38.6538,0,0,1-3.9,2.35q-2.6499,1.95-6.95,5.35a32.69015,32.69015,0,0,1-7.6,4.3,44.753,44.753,0,0,0-5.9-4.3,55.19163,55.19163,0,0,1-6.55-3.4,35.21637,35.21637,0,0,0-6.5-3.1,31.3559,31.3559,0,0,0-10.54992-5.05,78.27029,78.27029,0,0,1-11-3.75m72.15,4.45a15.69044,15.69044,0,0,0-1.20007,5.05,85.46038,85.46038,0,0,0-2.25,12.2q-1.75013,15.29984-1.6,19.9a2.1104,2.1104,0,0,0-1.5,1.44995,2.08349,2.08349,0,0,0,.6,2.1l1.20007,1.20007q.15.54987,1.04993.85l15.85,9.2a59.52906,59.52906,0,0,0,11,6.55,95.04407,95.04407,0,0,1,10.55,5.65l-6.85,1.6q-4.74994,2.4-7.85,3.6-5.2,1.15008-13.5,3.85-8.2,2.49993-13.80005,3.70007l.1-.30005a1.80442,1.80442,0,0,0-1.29993-2.65,1.96586,1.96586,0,0,0-2.70007,1.3q-1.8999,5.50011-7.7,20.04992-4.4502,11.15-7,20.05-.24994-.6-7.25-18.4a60.38528,60.38528,0,0,0-9.35-16.65,1.44617,1.44617,0,0,0-.15-1.45,1.6652,1.6652,0,0,0-1.65-.6q-1.6-1.79994-3.1,0-5.80005-.90015-9.8-1.35a78.956,78.956,0,0,0-19-2.95007q-6.95-.75-15.7-.9,23.75006-17.6499,29.04992-23l3.9-3.1499a1.29008,1.29008,0,0,0,1.75.1499,1.30682,1.30682,0,0,0,.6-1.75,1.90236,1.90236,0,0,0-1.6499-3,43.3005,43.3005,0,0,1-3.1001-10.04992q-1.79993-8.35008-2.6499-11a57.48143,57.48143,0,0,1-3.6001-14.25l-3.1-9.65q3.7002,1.8,9.95007,4.6a53.26624,53.26624,0,0,1,9.5,5.8,29.20141,29.20141,0,0,1,6.54993,3.1,35.24951,35.24951,0,0,0,6.35,3.4,38.41254,38.41254,0,0,0,6.8501,3.3q.6,1.1499,1.8999.45l2.70008.45q.9-.00009,1-.75.29993-.75009-.25-1.05a85.18389,85.18389,0,0,0,12.6-7.3q.9-.55,3.7-2.5a21.05209,21.05209,0,0,1,3.8501-2.25q2.54993-1.9,7-4.6m-187.80005-201.9q-2.85-3.5-6-12.4a3.25088,3.25088,0,0,0-3.25-2.35q-2.49993-.15006-2.35,2.6a164.94093,164.94093,0,0,1-2,46.15q-6.40009,34.5-25.75,39.85,5.75005-13.25007,3.1-21.5-2.25-6.84988-9-7.5-6.35-.75009-10.5,4.65-4.75,6-2.1,15.35a17.4009,17.4009,0,0,0,8.35,10.75,16.4915,16.4915,0,0,0,14.65,1.4q20.5-7,27.1-53.5,7.4,5.25,10.5,9.35a21.22006,21.22006,0,0,1,4.75,13.15q0,4.25,3,1.6,2.9-2.75007,5-9,6-17.85-5.5-29.1-7.74993-7-10-9.5m-1.25,5.35a94.26408,94.26408,0,0,0,8.65,7.9,15.91745,15.91745,0,0,1,5.1,10.75q-1.5-2.9-7.35-8.9-5.15-5.34988-6.4-9.75m-46,59.65q-1.6-5.15,2.5-12.5,3.25,7.1,1.25,12.5-.85,2.09994-2,2.1-1.1-.09988-1.75-2.1m-155.55-268.9a12.66691,12.66691,0,0,0-9.4,1.55005,12.24572,12.24572,0,0,0-5.1,7.65,284.86838,284.86838,0,0,1-9.2,29.05q-7.4,20.15-9.7,28.80005-2.05,7.9-10.95,5.65-12.00009-3.35-20.65,3.3-15.8,11.7-15.55,27.55005.25,14.00005,12.25,23.94995a35.81623,35.81623,0,0,0,27.25,8.9q17.09994-1.5,29.35-18.35,12.75-17.05,19.1-45.65,2.05-9.15006,4.85-11.95,3.85-3.6,12.75-1.8,17.35,3.05,19.1,6.4,1.8,3.3-4.05,19.6-1.30005,4.1-3.3,5.1-1.8,1.30005-6.4.5-13-2.25-22.7,6.15a33.14425,33.14425,0,0,0-11.19995,20.4q-2.05,13,4.85,22.94995,7.9,11.2,24.7,14,32.14992,5.6,51.55-47.65a347.80687,347.80687,0,0,0,11.95-43.35q4.85-25.5,6.65-32.9,2.05-7.9-10.44995-11.75-12.24995-3.8-85.7-18.1m-54.55,95.1q1-.5,9.94995-1.5,15.05-1.8,21.4-22.45,11.75-32.15,15.55-48.7,2.55-11.2,12.5-10.2l64,13.5q3.85006,1.05,4.6,1.30005,1.8,1.25,1,4.85-3.05,12.45-8.4,37.45-5.09994,22.2-11.2,36.45-13,31.65-30.35,29.1a11.79175,11.79175,0,0,1-9.7-6.65,12.46615,12.46615,0,0,1,0-11.94995q3.05008-6.15006,11.5-7.95a29.24486,29.24486,0,0,1,14.75.8q3.35,1,9.45-20.15,3.8-13.25,6.1-25,1.30005-9.45-6.6-10.94995-28.05-6.15006-35.45-7.65-9.95-1.8-13.25,2.05-2.05005,2.3-8.15,18.35a362.96563,362.96563,0,0,1-19.65,41.8q-6.65,12-21.15,12.25-15.05.25-12.5-16.05,1.25-6.90006,5.6-8.7m190.1-210.3q-4.1,2.7-5,3.15-6.65,4.1-8.95,7a31.04343,31.04343,0,0,0-2.7,4.2q-8.5,9.25-6.69995,19.55a36.7355,36.7355,0,0,0,4.25,9.85q2.89993,5.14992,3.5,6.05a19.88974,19.88974,0,0,0,4.69995,5.15,43.81984,43.81984,0,0,0,8.95,6.25q2.4,1.35,9.85,4.55005.9.45,6.5,3.15a34.80512,34.80512,0,0,0,6.65,2.75q3.65,1.05,9.25,2.85a119.78732,119.78732,0,0,0,16.5,3.35q6.2.75,17.00006,1.05,12.85.3,18.75.15a164.74,164.74,0,0,0,18.6499-1.8,47.60145,47.60145,0,0,0,9.1001-2.30005q1.5-.45,8.8999-1.65a33.76626,33.76626,0,0,0,8.65-2.75,40.92091,40.92091,0,0,0,6.05-2.55,70.1469,70.1469,0,0,0,10-6.5q4.4-5.6,4.7-6.1a25.453,25.453,0,0,0,5.3-8.3,21.5307,21.5307,0,0,0,2.15-8.95,30.39621,30.39621,0,0,0-1.4-9.25,35.61713,35.61713,0,0,0-7.4-14.7q-4.55-5.45-13.19995-10.45a67.04651,67.04651,0,0,1-5.45007-4.05,37.73991,37.73991,0,0,0-5.6-3.95,77.75313,77.75313,0,0,0-15.44995-6.7q-5.6001-1.65-16.95007-3.75-7.75013-.75-8.65-.9a82.18823,82.18823,0,0,0-12.7.6q-7.74993,1.05-12.44995,1.5a44.08534,44.08534,0,0,0-10.30005-.3q-14.7,2.7-21.05,4.1a93.60084,93.60084,0,0,0-20.15,6.8q-2.4,1.2-5.3,2.9m-11.95,18q1.5-1.35,7.85-5.75a84.92362,84.92362,0,0,1,12.44995-7.55q.90006-.35,12.7-5.8,8.35006-2.4,26.35-5.6a87.59817,87.59817,0,0,0,11.54992-1.65q8.15-.15,16.65,0a32.3026,32.3026,0,0,0,5.6.45q1.65.3,8.3501.9l3.8999.75a70.7721,70.7721,0,0,1,12,3.95q3.75,1.5,11.95008,5.3,16.79993,7.15,23.79992,15.45,3,4.4,5.3,12.6l1.35,5a23.64881,23.64881,0,0,1-.45,4.55,62.32721,62.32721,0,0,0-5.6,8.3q-.15.45007-4.25,6.05a32.62528,32.62528,0,0,1-7.25,5.30005,36.85293,36.85293,0,0,1-5.45007,2.3,29.04031,29.04031,0,0,1-8.35,2.1,56.91506,56.91506,0,0,0-8.5,1.25q-.3001.15-3.94995,1.35a15.61019,15.61019,0,0,1-4.05005.9,163.58377,163.58377,0,0,1-18.05,1.65q-3.8,0-18-.3-11.7-.3-15.79992-.6a101.65288,101.65288,0,0,1-15.6-2.85q-6.35-1.55-9.05-2.45a44.2939,44.2939,0,0,1-6.25-2.4q-3.75-1.85-6.2-2.9-6.19995-2.55-8.95-3.95a35.48611,35.48611,0,0,1-8-5.3,29.42977,29.42977,0,0,1-7.15-8.95,42.57655,42.57655,0,0,1-3.15-4.65,34.23944,34.23944,0,0,1-.45-8.2,20.85818,20.85818,0,0,1,1.05005-4.55,25.85529,25.85529,0,0,1,3.65-4.7m136.00006,13.35a.54665.54665,0,0,0-.75.45,22.57046,22.57046,0,0,1-.9,3.8,6.10622,6.10622,0,0,1-1.05,3.3,27.24683,27.24683,0,0,0-1.79993,3.05.56156.56156,0,0,0,.29993.9q.6.3.75-.3a25.84533,25.84533,0,0,1,2.1-3.2,7.17323,7.17323,0,0,0,1.20008-3.75q.59985-2.3.79992-3.5.15-.6-.6499-.75m-5.9,0a.83856.83856,0,0,0-.6-1.2q-.75-.35-1.05005.6-.6,1.95-1.8,5.3a20.0603,20.0603,0,0,1-2.45,4.85.49017.49017,0,0,0,.15.6q.29993.3.45,0a41.47686,41.47686,0,0,0,5.3-10.15m14.85,1.5-1.94995-3.5q-.15-.3-.45007.3l1.65,3.5q.30012,7.45-8.35,13.05l-1.20008,2.25,1.65-1.5q8.9502-6.05,8.65-14.1m5.6-5.15a.29641.29641,0,0,0-.45-.15.60791.60791,0,0,0-.3.75,15.32913,15.32913,0,0,1,1.35,8.95,27.98415,27.98415,0,0,1-4.7,12.85,45.51474,45.51474,0,0,1-9.8,9.1q8.15-5.3,11.20008-8.6a21.90143,21.90143,0,0,0,5.6-12.9,11.05534,11.05534,0,0,0-.6-5.15q-.15015-.45-2.3-4.85m-81.79993-10q-7.7,1.95-10.9,3.8-5.3,3.15-4.85,8.95a7.26755,7.26755,0,0,0,2.6,5.3,45.22152,45.22152,0,0,0,5.15,3.3,36.28794,36.28794,0,0,0,11.65,4.7,63.14473,63.14473,0,0,0,12.55.75q5.3-.15006,12.6-4.4,9.7002-6.05,7.25-12.55a13.19187,13.19187,0,0,0-8-8.35q-3.95-1.35-12.29993-1.5l-.45007-.3a32.90749,32.90749,0,0,0-15.29993.3m15,1.2.6-.3q7.29986.3,11.2,2a13.3285,13.3285,0,0,1,7.45007,7.85q1.04993,2.75-1.5,5.3a25.4804,25.4804,0,0,1-5.15,3.95,23.317,23.317,0,0,1-11.55,3.8q-9.0498.15-12.1-.15a28.40553,28.40553,0,0,1-11.2-3.95q-4.39993-2.45-4.55-2.6a5.94813,5.94813,0,0,1-2.45-4.5q-.45-5,4.55-7.6,1.55-.6,10-3.05a41.89206,41.89206,0,0,1,11.5-1.35l1.25.15,1.95007.45m6.79993,11.05a4.809,4.809,0,0,0-1.79993-4.35,7.66794,7.66794,0,0,0-3.95007-1.85q-3-.3-4.7-.6a31.84923,31.84923,0,0,0-6.8,1.2l-1.79993.8-1.1001.75a2.85638,2.85638,0,0,0-1.5,1.35l-.74993.75q-1.8,2.15.6,3.5a31.02963,31.02963,0,0,0,7.44995,3.3,22.75614,22.75614,0,0,0,8.15.15h2.15a4.98453,4.98453,0,0,0,1.94995-.6,4.83544,4.83544,0,0,0,2.1-4.4m-7.85-.9a3.6293,3.6293,0,0,1,2.4.75l-1.35-.3a20.04764,20.04764,0,0,1-7.55005.15l3.6-.6a12.856,12.856,0,0,0,2.9,0m-44.85-13.75a.29648.29648,0,0,0-.45-.15,41.61622,41.61622,0,0,0-9.4,7.25.72289.72289,0,0,0,0,1.05q.45007.6.9.15a43.60176,43.60176,0,0,1,8.8-7.7q.3-.15.15-.6m-10.6,2.1q.3-.15.15-.6a.29647.29647,0,0,0-.45-.15,34.47991,34.47991,0,0,1-3.2,1.35,36.63723,36.63723,0,0,0-6.2,6.95.81639.81639,0,0,0,0,.95q.45.45.75,0,5.6-6.25,6.05005-6.7l2.9-1.8m-11.35-2.1a18.28213,18.28213,0,0,0-5.9,4.05,15.75263,15.75263,0,0,0-2.15,3.35q-1.65006,3.65-1.65,3.8a.75926.75926,0,0,0,.3.9.478.478,0,0,0,.75-.15,24.99172,24.99172,0,0,1,3.95-6.5,20.26633,20.26633,0,0,1,5.45-4.4,56.62185,56.62185,0,0,1,6.2-3.35q.3-.15.15-.6a.29649.29649,0,0,0-.45-.15q-4.55,2.1-6.65,3.05m-.3-5.65a.29652.29652,0,0,0-.45-.15q-6.99995,3.65-8.35,4.55a22.02039,22.02039,0,0,0-6.5,7.15,49.8515,49.8515,0,0,0-2.3,7.1.47435.47435,0,0,0,.9.3,59.19626,59.19626,0,0,1,2.45-6.65,23.63047,23.63047,0,0,1,6.19995-6.95,64.83215,64.83215,0,0,1,7.9-4.7q.3-.15.15-.65M877.763,393.9111q-2.25009-1.75.5-19.45,2.8-17.55,1.4-18.25t-10.1,14.75q-8.99991,15.85-13,16-2.95.2-13.75-8-10.1-7.65-10.75-6.95-2.1,1.9,7.44995,15.15,9.55,13.35,4.85,18.05-.99995,1.05-13.55,11.3-9.2,7.65-8.15,9.2.69993.9,14.25-3.65,14.40006-4.85,18.75-3.65.55.2,5.6,15.5,5.2,15.25,6.95,15.1,1.7-.2,3.95-17.05,2.44995-17.55,4-19.1,2.65-2.45,16.55-5.05,12.85006-2.6,13-4,.2-1.4-11.45-4.15-13.05-3.3-16.5-5.75m157.85,2.4a7.87449,7.87449,0,0,0,4.8501,3.2,152.83174,152.83174,0,0,1,20.29993,7.75q16.6,7.3,19.65,8.5,5.35,2.1,5.85,3.6.49987,1.25-1.9,6.65-5.00005,11,3.95008,22.7,9.54986,12.75,25.9,5.3,17.6499-7.95,15.25-25.85-2.65008-21.15-36.5-36.1-15.3501-7.65-16.8501-6.75,8.49995-4.9,14.95008-5.05,7.65-.5,2.15-7.25-5.65008-6.85-16.65-10.35-12.99994-4.25-23.5,1-12.90015,6.45-18.45008,26.75a6.88649,6.88649,0,0,0,1,5.9m18,.8q-8.2-3.45-8.6-4.2-.29993-.8,2.95007-9.65,3.75-9.3,12.6-12.2,10.00013-3.4,21.15,4.3-19.0501,8.95-17.05005,15.15,1.4,4.55,16.6,10.5,20.65008,7.95,26.20007,11.45,13.55,8,12.29993,18.5-.9,8.05-7.04993,11.8a16.989,16.989,0,0,1-12,2q-6.55005-1.4-8.45007-6.45-2.2-5.5,3.3-12.85,3.45007-4.35,3.4-6.1.1-2.25-3.95007-4.5-18.29993-7.7-41.4-17.75m-801.7,452.7q.2.24993.35.1l1.65-1.1a1.6282,1.6282,0,0,0,1.4,1.15,1.45428,1.45428,0,0,0,1.6-.95l1.2-2.5a34.7639,34.7639,0,0,1,16.6-3.35,63.08664,63.08664,0,0,1,17.9,3.85q3.3,1.69995,9.05,4.5,5.5,2.6,9.1,4.45,9.1,1.8999,12.15-2.85a14.42344,14.42344,0,0,0,2.45-8.75,13.59148,13.59148,0,0,0-3.6-8.35,44.19979,44.19979,0,0,0-10.45-8.95,43.56274,43.56274,0,0,0-13.25-4.35q-14.55-2.49993-26.45,4.35-11.55,6.8-17.65,20.7l-.05.45-1.9,1.25q-.25.15-.1.35m24.35-10.55a49.27873,49.27873,0,0,0-17.45,6,33.94942,33.94942,0,0,1,16-14.85q10.1-4.49991,22.35-2.35a32.911,32.911,0,0,1,11.35,3.85,38.44093,38.44093,0,0,1,9.15,7.8,7.21206,7.21206,0,0,1,1.95,5,8.6112,8.6112,0,0,1-1.6,5.25,2.225,2.225,0,0,1-2.25,1.1,25.7905,25.7905,0,0,1-2.95-.65q-11-5.24991-17.9-8.85a40.55031,40.55031,0,0,0-18.65-2.3m-1.7-3.5a.455.455,0,0,0,.7.2q8.6-5.05005,18.7-.75,5.45,2.35,17.95,11.75a2.82,2.82,0,1,0,3.4-4.5q-10.8-8.3-19.85-10.45a27.0695,27.0695,0,0,0-20.75,2.95q-.45.25-.15.8m-65.9-13.6a1.68282,1.68282,0,0,0-1.4,2.3l.25,1.45-2.85,2.15q-6.05,6.3-14.5,15.8-8.95,10.05-14.4,15.80005l-4.6,7.05q-10.35-.55005-19.8-.45-19.7-.4-31.35.3l-.6-.7a1.2961,1.2961,0,0,0-1.85-.6q-1.3.45-1,1.6a1.0276,1.0276,0,0,0-.7,1,.76291.76291,0,0,0,1,.7h.7l5.2,8.2a233.6228,233.6228,0,0,1,13.65,21.85q3.6,6.74991,3.85,7.05005a24.55051,24.55051,0,0,0,4.6,5.75,132.75222,132.75222,0,0,0-8.3,23.55q-1.9,7.35-6.2,24.3a24.05227,24.05227,0,0,0-1.3,6.45q-.3,1.45.7,1.9a28.89272,28.89272,0,0,0-4.3,2.6.64839.64839,0,0,0-.15,1q.6.7,1.15.15,2.75-2.2,19-8.05,20.85-7.95,23.7-9.1a72.892,72.892,0,0,1,9.65-5.15,125.20655,125.20655,0,0,0,22.4,16.55q17.1,10.29994,22.85,14.65l.15.7a1.85657,1.85657,0,0,0,1,1.45,1.69864,1.69864,0,0,0,1.6,0l1,.69995q1.55,1.45,3-.3a1.93062,1.93062,0,0,0-.3-3l-2.45-1.85.15-.6q.3-4.45-.7-22.4-1.15-19.25-1.15-23.3l.3-.30005q.7.45.7-.4,6.35-4.60007,20.1-13.65,13.7-9.05,20.45-13.1l3-2.6,3.75,1.9a1.38441,1.38441,0,0,0,2-.75,1.43666,1.43666,0,0,0-.7-2l-5.9-2.7q-5.9-2.44995-13.95-5.5-12.35-4.45-15.25-5.6-7.3-3-10.6-4.3a46.07718,46.07718,0,0,0-10.2-3l-.15-.30005q-1.75-9.9-4.05-26.6-2.15-15.80009-4-25.85l.55-.45a1.705,1.705,0,0,0,.6-2,1.62254,1.62254,0,0,0-1.75-1,1.99985,1.99985,0,0,0-2.6-1.3m-15.8,24.3q8.8-9.95,14.25-15.7l1.15-.85q3.45,17.95,8.75,49.44995h-.55q-1-.15-1,.85-.15,1,.85,1a33.63928,33.63928,0,0,1,12.05,3.05q3.45,1.55008,11.5,5.15,22.3,8.5,26.45,10.19995l-1,.85q-13.35,7.95-39.25,26.9-.4-1.45-1.55-1a2.07834,2.07834,0,0,0-1.3,2l-.15,1.45a1.51514,1.51514,0,0,0,0,2q-.3,11.35006.55,42.85-4.3-3.05-21.1-12.4a111.35028,111.35028,0,0,1-20.7-14.5l.55-.15a1.37072,1.37072,0,0,0,.9-2q-.6-1.59988-2.05-.85a84.66272,84.66272,0,0,0-13.75,6.45q-27.05,11.2-34.8,14.95a25.90628,25.90628,0,0,1,1.15-5.75q1.15-3.74991,5.6-24.15a119.68964,119.68964,0,0,1,7.6-23.25l.6.55a1.5112,1.5112,0,0,0,2.3-.45q.85-1.25007-.6-2.15a20.50656,20.50656,0,0,1-5.75-6.3q-2.3-4.9001-3.85-7.75a214.83194,214.83194,0,0,0-13.95-22.30005l-4.45-6.3a136.34185,136.34185,0,0,1,14.8.25q9.9.6,15.35.6,12.25-.3,17.85,0l-.85,1a1.32117,1.32117,0,0,0,.25,2.15,1.347,1.347,0,0,0,2.15-.15q3.9-4.60008,7.8-10.2,5.9-6.15,14.2-15.5m13.65-4.6a1.2395,1.2395,0,0,0-.25-2,1.43655,1.43655,0,0,0-2.2.25,167.93678,167.93678,0,0,1-12.05,14.95,73.57344,73.57344,0,0,1-11.8,13.1,55.82288,55.82288,0,0,0-5.9,8.75,63.57764,63.57764,0,0,1-19.1-.30005q-11.75-2.14993-19.4-3.15a.93054.93054,0,0,0-1.15.6,1.277,1.277,0,0,0-.15,1.25.78644.78644,0,0,0,0,1.05,91.48507,91.48507,0,0,1,11.5,16.2q7.05,12.10006,10.5,16.85-.85-.3-1.15.69995l-9.75,25a64.55736,64.55736,0,0,0-1.3,8.2q-.6,2-1.9,8.75l-.4,2.15a1.32235,1.32235,0,0,0,1.15,1.6,1.12817,1.12817,0,0,0,1.55-1l.45-1.6q4.3-1.55,11.35-4.75,7.2-3.15,11.95-4.85,9.75-4.75,15.95-7.9a41.07285,41.07285,0,0,1,7.3,6.45,75.91386,75.91386,0,0,0,7.5,7.35,67.707,67.707,0,0,1,8.2,7.75,60.04137,60.04137,0,0,0,6.6,4.3l.15,1.45a1.75665,1.75665,0,0,0,1.4,1.85,1.78223,1.78223,0,0,0,2.05-.85l.85.55a.81488.81488,0,0,0,1.3-.1q.55-.6-.15-1.15l-1.75-1.6a60.24162,60.24162,0,0,1,.45-6.05,35.61732,35.61732,0,0,0,.3-6.30005,19.27987,19.27987,0,0,0,.15-4.3,31.02182,31.02182,0,0,1,0-4.35q-.45-5.75-.6-8.3a30.94791,30.94791,0,0,1,.45-8.2,57.524,57.524,0,0,0,6.45-2.6,36.96334,36.96334,0,0,1,6.05-3.3,39.34449,39.34449,0,0,0,5.9-3.6,30.258,30.258,0,0,0,9.45-5.75,95.20518,95.20518,0,0,1,8.65-6.9.89378.89378,0,0,0,1.15-.85.931.931,0,0,0-.75-1.3,29.86868,29.86868,0,0,1-5-2,26.79342,26.79342,0,0,0-5.05-2.15,52.7397,52.7397,0,0,0-13.65-4.6q-7.2-2.45006-10.35-3.45a59.11215,59.11215,0,0,0-9.75-2.15,50.41672,50.41672,0,0,0,0-5.5l-5.2-38.2m14.4,49q7.75,2.85,10.05,3.6a60.73757,60.73757,0,0,1,13.2,4.6l9.2,2.55q-3.15,2.04994-8.6,5.5a55.84558,55.84558,0,0,1-9.5,4.45,29.8351,29.8351,0,0,1-6.05,3.6,46.02481,46.02481,0,0,0-6,3.3q-5.35,3.15-6.05,3.7-1,.00009-1.45,1.44995-.15.15-1.55,1.9a.70091.70091,0,0,0,0,1.15.71759.71759,0,0,0,1,.25,88.73675,88.73675,0,0,0-.75,13.65q-.1,1.60006,0,4.35a21.97149,21.97149,0,0,1-.1,4.3q.1,4.3,0,7.75a43.12754,43.12754,0,0,0-3.35-3.45,87.05474,87.05474,0,0,0-8.6-8.05q-11.2-9.2-14.95-11.65a1.8477,1.8477,0,0,0-.45-1.85,2.10305,2.10305,0,0,0-2-.7l-1.45.4a1.13227,1.13227,0,0,0-1.25.44995q-5.75,2.99991-15.55,7.75a55.94276,55.94276,0,0,0-10.75,5.30005q-7.05,4.2-9.95,5.5l2.15-6.35a80.10674,80.10674,0,0,1,1.3-8.05q1.9-4.9,4.05-12.65,2.15-8.05,4-12.9l.3.25a1.67116,1.67116,0,0,0,2.75.3,1.75293,1.75293,0,0,0,.4-2.75q-3.6-4.6-12.05-16.5a168.11237,168.11237,0,0,0-12.25-15.8q1.9.25,18.4,3.6a62.97451,62.97451,0,0,0,18.1,1.25,1.52577,1.52577,0,0,0,1.3.6,1.25239,1.25239,0,0,0,1.15-.85q2.15-.45,1.6-2.45,3.75-4.2,6.2-7.19995a74.1859,74.1859,0,0,0,12.05-13.5q4.6-5.6,9.05-12.1.3,6.8,1.15,17.55,1,12.8,1.85,17.55005l.6,4.75a1.02505,1.02505,0,0,0-1,1.3,1.121,1.121,0,0,0,1.15,1.25,1.35622,1.35622,0,0,0,1.45,1.05,1.5418,1.5418,0,0,0,1.55-.75,48.47036,48.47036,0,0,1,9.65,2.6m-127.95-172.9-.5-.15a33.559,33.559,0,0,0-10.95,1.3,69.78662,69.78662,0,0,1-12.85.6l-6.8-.3-.5-1.25q-2.85-12.55005-5.05-20.5-1.9-4.45-2.7-6.5-1.6-3.3-3.15-6.2-1.3-2.05005-2.9-1.9-1.7.2-2.5,2.4l-2.1,5.4-.95.80005a58.65352,58.65352,0,0,0-6.8,12.5,104.10053,104.10053,0,0,0-3.5,12.69995q-14.9-.94995-24.6-.94995-2.85,0-3.5,2.25-.6,2.04994,1.95,3.65l3.3,2.2a1.90174,1.90174,0,0,0,.35,1.9q-1.15,1.44991.45,3.19995a39.663,39.663,0,0,0,7.15,6.65q1.1.65,8.25,4.9-8.1,19.7-13,28.9-1.15,2.2.15,3.65,1.25,1.39993,3.65.3a31.39694,31.39694,0,0,0,6.35-3.95,18.76034,18.76034,0,0,0,7.15-3.05q.95-.59994,6-4.75l12.2-5.4,11.6,6.35q3.2,2.1,11.75,6.85l6.35,4.9a1.94284,1.94284,0,0,0,2.2.65,2.14892,2.14892,0,0,0,.95-2.1q1.6-.59994,1.1-3.6l-.15-.35q.5-.45.15-1.6-2.2-5.35007-4.6-12.65-2.85-9.19995-3.95-12.1,28.55-16.30005,31.9-18.05,2.2-1.30005,2.05-3.2-.15-1.74993-2.7-2.35a34.58842,34.58842,0,0,0-11.25-1.15m-44.6-22.2,1.3,4.95q1.1,4.25007,5.55,18.2l-1.1-.15q-5.6-13.65006-7-18.7l1.25-4.3m-5.55,22.05,2.55-11.9,4.9,12.55-7.45-.65m-21.9,7.15-1.9-1.4q3.5.3,11.1,1.25l-9.2.15m7.95,5.1-.15.95-1.45-.95h1.6m17.75,13.45a72.69,72.69,0,0,0-9.2-6.5l.35-.6,2.2-6.55005,14.45-.6,1.9,5.05a20.59236,20.59236,0,0,0,1.9,5.4l-.8.5a63.56818,63.56818,0,0,0-9.2,4.75l-1.6-1.45m-14.25,1.9,7.45,5.55-6.8,5.6-6.7,3.3a74.05461,74.05461,0,0,1,2.55-8.25,37.89094,37.89094,0,0,1,3.5-6.19995m47.1-20.15,1.45-.3-5.9,3.35-6.35,4.75-2.7-4.6h.5q4.3-.3,13-3.2m-22.85,26.5,5.55-3q1.15,2.19991,7.3,12.4l.35.75q-7.95-5.85-13.2-10.15m164.4-167.75a74.5768,74.5768,0,0,0,13.6,10.25,211.30719,211.30719,0,0,0,23.45,5q-4,9.7-9.3,20.95-3.15,6.64993-10.05,20.8a3.30609,3.30609,0,0,0-1.95-1.95,19.94174,19.94174,0,0,0-11.35-2.15,15.54053,15.54053,0,0,0-10,5q-3.7,4.29994,1.05,7.4a27.66365,27.66365,0,0,0,21.5,4.65,4.76864,4.76864,0,0,0,3.9-2.9,5.58144,5.58144,0,0,0-.25-4.55q14.5-30.65,23.85-50.85,1.55-3.3.35-5.35t-4.85-2.2q-6.4-.4-11.25-1.15-1.3-.24993-2.85-.55h-20.35v-9.2q-1.1-.9-2.15-1.85-2.15-2-3.9-.69995a7.05245,7.05245,0,0,0-2.5,4.3q-5.15,19.1-5.7,20.8a34.62931,34.62931,0,0,1-11.55,16,4.01727,4.01727,0,0,0,.2-1.5q-.3-7.45-11.85-7-11.45.59994-14.35,7.75a4.31659,4.31659,0,0,0,1.8,5.7,35.54053,35.54053,0,0,0,10.15,5.1,21.68608,21.68608,0,0,0,10.95.2q3.65-.75,4.1-3.25,8.6-5.5,13.05-17.25,4-14.25,6.25-21.5m-31.95,32.3q-2.05-.64994-2.9-1a10.89649,10.89649,0,0,1,3.55-1.95,5.39834,5.39834,0,0,0-.65,2.95m120.85-328.65a.58137.58137,0,0,1-.15-.1,1.02576,1.02576,0,0,0-1-.15.6275.6275,0,0,0-.15.25.73321.73321,0,0,0,0,.65l.15.45-.05-.05-.15-.1a.67669.67669,0,0,0-.85,0,.65461.65461,0,0,0-.15.85l.15.15,1.3,1.6q-.4-.1-.6.35a.5133.5133,0,0,0,.2.7,31.15737,31.15737,0,0,1,3.25,3.1,9.67822,9.67822,0,0,0,1.45,1.8l-.6.15-1.05-.05a6.34869,6.34869,0,0,0-1.55.3l-1.1-.15q-.85-.3.2.6-1.35.75-.9,1.05h-.45a.83467.83467,0,0,0-.9.75.81463.81463,0,0,0,.45,1l-3.25.05-.15.1a.83651.83651,0,0,0-.9.85q0,.75.9.9l8.3.95-3.1,6a.97768.97768,0,0,0,1.65,1l.1-.1-.1.25-.75,1.4a.95083.95083,0,0,0,.25,1.25.83067.83067,0,0,0,1.2-.15,23.72763,23.72763,0,0,0,1.95-2.35,21.66209,21.66209,0,0,0,5.45-6.5,35.07936,35.07936,0,0,0,3.2,3.3l2.1,2.95a.65488.65488,0,0,0,1,.15q.5-.3.2-1l-.15-.2.25-.3.7.35q.75.4,1.1-.2.45-.55-.15-1.15l-.05-.05-.6-.45a.982.982,0,0,0-.1-.85l-.05-.1a46.56062,46.56062,0,0,0-3.6-4.05l-.45-.75,1.9-.1a1.01757,1.01757,0,0,0,.75-.3.527.527,0,0,0,.25-.55l1.5.15h.15a.81493.81493,0,0,0,.6-.2,9.53832,9.53832,0,0,1,1.55.4q.95.2,1.25-.4l.15-.4,2.3-.05q.94995-.1,1.05-.9.05-.85-.9-1.05l-4.5-.85.55-.45a.90639.90639,0,0,0,.3-1.15,1.01477,1.01477,0,0,0-1.15-.5,38.17421,38.17421,0,0,0-4.95,1.2h-1.25q1.05-2.2,3.7-9.3l.4-1.1q.4-.8-.15-1.2a.98128.98128,0,0,0-1.3.1l-1.35,1.05-.4.15a9.83775,9.83775,0,0,0-3,3.4,22.27742,22.27742,0,0,0-2.55,4.55,28.69972,28.69972,0,0,0-4.25-4.75.836.836,0,0,0-.9-.35q-.8-.75-2.2-1.85m.95,2.7.95,1,.35,1.5-.45-.55-.85-1.95m-202,152.75a27.70842,27.70842,0,0,0,1-2.85,28.87258,28.87258,0,0,1,4.7-3.4,16.32377,16.32377,0,0,1,5.35-1.85,50.43418,50.43418,0,0,1,9.45-.65,76.12449,76.12449,0,0,1,9.4.95q.2.1.3-.15,0-.19995-.25-.3-6.65-1.35-9.6-1.8a27.37562,27.37562,0,0,0-9.6-.1,17.98231,17.98231,0,0,0-6.1,2.2,41.38589,41.38589,0,0,0-5.4,4q-.35,1.45-1.1,4.05a4.829,4.829,0,0,0,.65,3.75q1.05,1.6,4.4,1.3a14.54873,14.54873,0,0,0,5.05-1.2q1.55-.7,4.8-2.5a39.38507,39.38507,0,0,0,5.95-2.15q2.1-.9,5.4-2.45a28.0861,28.0861,0,0,1,5.55-1.9q-.05,0-5.95.6a18.60678,18.60678,0,0,0-5.85,1.45,39.995,39.995,0,0,1-6.05,2.15q-2.95,1.75-4.35,2.45a11.89854,11.89854,0,0,1-4.65,1.35q-.95.15-1.4.25a1.18983,1.18983,0,0,1-1.15-.55,3.2079,3.2079,0,0,1-.55-2.65m3.65-12.65q2.95-.75,7.55-2a20.37109,20.37109,0,0,1,7.65-.25,43.24453,43.24453,0,0,1,7.2,1.8q.2.1,7.8,2.6a21.11323,21.11323,0,0,1,7.1,3.7.60936.60936,0,0,0,.9-.1.53362.53362,0,0,0-.1-.9,53.478,53.478,0,0,0-6.95-5.05,60.11263,60.11263,0,0,0-7.65-3.85q-1.4-.3-3.9-1.05a30.2576,30.2576,0,0,0-3.85-.95,24.62759,24.62759,0,0,0-8.55.3q-5.15,1.4-8.4,2.15a26.50229,26.50229,0,0,0-10.6,7.25,12.7409,12.7409,0,0,0-3.05,11.2q.8,3.2,1.1,3.95a6.67666,6.67666,0,0,0,2.25,2.95,12.02153,12.02153,0,0,0,6.95,2.2,33.67827,33.67827,0,0,0,7.65-1.3,31.69449,31.69449,0,0,0,5.65-2.15q4.1-2,5.55-2.65,7.65-2.95,9.75-3.6a60.69735,60.69735,0,0,1,10.05-2.45q.6-.05,2.75-.5a10.037,10.037,0,0,1,2.65-.4.30937.30937,0,0,0,.35-.35q0-.4-.35-.4a19.22743,19.22743,0,0,0-5.7-.05q-6.55,1.1-10.35,2.05a101.07246,101.07246,0,0,0-10.15,3.3q-1.2.45-5.35,2.5a29.25186,29.25186,0,0,1-5.55,1.95,22.66742,22.66742,0,0,1-6.25,1,10.18728,10.18728,0,0,1-5.85-1.8,4.347,4.347,0,0,1-1.4-2.2q-.3-1.75-.55-2.8-1.9-8.65,11.65-14.1m-23.7,15.75a5.16851,5.16851,0,0,1,.1-2.65q.55-2.4.55-2.65a23.6159,23.6159,0,0,1,1.35-6.2,9.28256,9.28256,0,0,1,3.85-4.45l5.3-3.1a51.41012,51.41012,0,0,1,7.55-3.8,40.67482,40.67482,0,0,1,8.25-2.1,25.53432,25.53432,0,0,1,6.5-.1q1.05.15,4.25.25a19.72213,19.72213,0,0,1,4.1.5,27.60432,27.60432,0,0,1,5.35,2.15q4.85,2.5,5.05,2.55l5,2.3a19.46731,19.46731,0,0,1,4.55,3.15q1.05,1,4.7,4.3,2.55,2.35,4.55,4.4a.58114.58114,0,0,0,.95.1.66713.66713,0,0,0,0-1,30.30342,30.30342,0,0,1-3.75-5.35,21.72781,21.72781,0,0,0-3.95-5.15,29.781,29.781,0,0,0-4.85-3.7,45.85594,45.85594,0,0,0-5.5-2.8q-3.75-1.9-5.45-2.8a30.30326,30.30326,0,0,0-5.7-2.2,27.15058,27.15058,0,0,0-4.45-.6q-3.55-.25-4.6-.4a34.11133,34.11133,0,0,1-3.8,0,25.30907,25.30907,0,0,0-3.7.15,47.45,47.45,0,0,0-8.95,2.35,56.24161,56.24161,0,0,0-8.3,4.15q-3.35,1.7-5.45,2.9a13.23881,13.23881,0,0,0-5.35,5.9,25.431,25.431,0,0,0-2.05,8.1q0,.2-.6,3.4a7.30068,7.30068,0,0,0,0,3.4,23.89005,23.89005,0,0,0,6.1,12.3,16.88338,16.88338,0,0,0,11.95,5.4,27.892,27.892,0,0,0,10.55-1.6q1.95-.75,9.75-4.85l14.8-6.95a77.77719,77.77719,0,0,1,7.9-2.85,25.24016,25.24016,0,0,1,8.15-.7,36.1517,36.1517,0,0,1,5.5,1.15q1.6.45,4.2.95a15.21351,15.21351,0,0,1,4,1.6.75261.75261,0,0,0,1.15-.2.8113.8113,0,0,0-.35-1.25,46.52934,46.52934,0,0,1-3.75-2.95,13.721,13.721,0,0,0-4.1-2.2,36.11748,36.11748,0,0,0-6.35-1.55,37.06678,37.06678,0,0,0-9.4.35,50.63,50.63,0,0,0-9.05,2.8l-15.05,7.05q-5.85,3.3-8.55,4.55a20.13656,20.13656,0,0,1-9.25,1.7,12.53524,12.53524,0,0,1-9.05-4.2,20.24659,20.24659,0,0,1-4.65-9.55m118.55-265.9q-16.85-14.9-30.7-1.05-13.4,12.9-6,29.25a243.89768,243.89768,0,0,0,21.85,38.1q19.75,27.25,29.2,18.3,29.7-27.2,39.65-44.05,15.3-26.2-3.95-44.05-11.95-10.95-25.8,1-13.85,11.85-24.25,2.5m29.7,17.8q12.85-11.45,6.45,9.45-6.45,21.25-15.35,26.65-1-13.85,0-19.75a25.9056,25.9056,0,0,1,8.9-16.35m373.7,254.3q4-1.4,4.65-8.3.20006-4.45-5.9-5.65-7.05,1.6-8.05,5.65-1.04993,3.65,2.4,6.5,3.45,3,6.9,1.8m36.35-69.75q-.99995,6.25,5.05,8.3,6.3-.2,7.5-7.1,1.2-6.85-5.05-7.25-6.7-.2-7.5,6.05m-91.35,36q.4-6.5-6.05-7.3-6.1-.6-6.7,5.65-.59994,6.3,7.1,8.5,5.25-.4,5.65-6.85m2.65-69.75q-.45-6.85-6.7-6.85-6.25.2-5.45,6.45,1,7.05,6.45,7.25,5.45.25,5.7-6.85m51.7-26.05q-3.20006,1.4-3.6,6.85t7.25,6.45q10.7-6.45,2.25-12.3-3.05-2.25-5.9-1m-15.35,22.2q-9.69991-24.85-15.75-18.4-2.65,3.05-1.6,18,.6,7.9,2,19,.6,8.7-3.25,10.1-.59994.2-12.5.4-23.65.4-23.05,7.7.3999,5.65,10.5,10.1,16.1499,7.3,18.4,11.55,3.3,6.6-.9,27.6-.45008,2.1-.95,4.3-4.2,20.05005,3.65,16.8,7.15-2.7,19.3-21.1.54994-.85,1.15-1.75,7.45-11.7,10.9-12.55,3.05-1,15.55,4.65,1.4.6,11.35,6.3a58.01865,58.01865,0,0,0,7.25,3.35,25.48607,25.48607,0,0,0,4.65,1.3q4.8501.7,7.65-1.3a5.15236,5.15236,0,0,0,.65-.55q2.80005-2.8-1.19995-7.45-14.35007-15.4-18.2-19.4-5.45006-6.1-5.65-9.5,0-2.85,3.6-11.95,5.89993-14.15,9.9-27.3,2.05005-6.45-1-8.05-2.8-1.65-8.7,1.6a41.84328,41.84328,0,0,0-9.1,7.25q-2.6,3.05-7.85,8.5-6.90006,6.3-16.80005-19.2m-14.94995,65.5q-.80009,3.05-2.4,9.1-1.05-5.85,2.8-18.4a28.28705,28.28705,0,0,1-.4,9.3m-171.35-47.5v-2.8q0-4.3-4.3-4.3-4.45,0-4.45,4.3v2.95q-3.25,1.3-3.25,5.25a4.98446,4.98446,0,0,0,3.25,5.1q-.3,28.85-3.95,46.6a159.99516,159.99516,0,0,1-16.6,44.65l-.65-.15a9.17743,9.17743,0,0,0-4.8-11.05,36.15251,36.15251,0,0,0-26.85-2.15q-14.3,4.3-20.4,16.65-4.6,9.05,4.95,13,12.85,5.1,23.35,5.75a62.378,62.378,0,0,0,23.75-3.1,9.04278,9.04278,0,0,0,6.55-6.45,9.86225,9.86225,0,0,0-1.15-8.4q13.2-23.7,18.8-46.1,4.75-19.9,5.6-48.1,7.25,2.35,11.5,10.9a35.074,35.074,0,0,1,3.65,17.1,53.53035,53.53035,0,0,0,14.65,41.35q2.29993,2.8,4.95.5,2.6-2.45.3-5.1-5.25-6.25-4.25-16.65a122.14279,122.14279,0,0,0,2.6-19.4,38.33358,38.33358,0,0,0-9.2-26.55q-9.9-11.85-24.05-13.8m197.25-230.45q1.1001-2.4-1.6-2-6.7.4-10.75,1-9.6,1.2-35.5,3.45-2.2.2-10.35,1.65a40.54985,40.54985,0,0,1-10.4.6h-2.05a66.07668,66.07668,0,0,0-6.1-11.8l-2.8-6.55a31.792,31.792,0,0,0-3.9-5.9,68.43031,68.43031,0,0,1-3.85-6.1,49.21405,49.21405,0,0,1-3.9-9.15,94.26,94.26,0,0,0-3.65-9.35,84.66352,84.66352,0,0,1-3.9-7.6,14.87394,14.87394,0,0,1-1-4.25,14.55479,14.55479,0,0,0-1.2-4.3q-.2-.4-1,.2-.9.6-1.1.4-1-1.4-2.2-.8-1,.4-1,2a157.24984,157.24984,0,0,0,1.2,23.5q1.4,11.2,3.5,16.05a76.37771,76.37771,0,0,1,1.6,10.6,34.022,34.022,0,0,0,2.45,9.35,133.83207,133.83207,0,0,0-16.3,1.2q-8.5,1.05-13.65,1.55l-3.5.35q-9.95.6-14.45,1a77.36617,77.36617,0,0,0-13.85,2.85,17.61367,17.61367,0,0,1-4.2,1,12.06418,12.06418,0,0,0-4.1,1.2,1.36033,1.36033,0,0,0-.2.9q0,1-.4,1.2-1.05,1-.8,1.8,0,1,1.4,1.2,3.1.8,9.15,2.9a50.08682,50.08682,0,0,0,9.2,2.65q1,.2,6.5.4a17.63,17.63,0,0,1,6.15,1,67.832,67.832,0,0,0,9.1,2.2q5.95,1.3,9.15,2.3,8.55,2.8,11.65,2.8-5.5,12.45-6.35,20.8a27.37607,27.37607,0,0,0,.45,6.5q0,5.7-1.25,22.85-.6,6.05-1.4,15.05-.6.65.8,2.05a2.78353,2.78353,0,0,0,1.85,1q1-.2,1.4-1.6a34.14419,34.14419,0,0,1,3.9-8.75l1-1.3.4-1.4,3.7-5.3a18.06546,18.06546,0,0,0,3.65-3.05q1.2-1.6.4-2.8a105.54315,105.54315,0,0,0,12.6-23.45l.6-1,3.3-1.45.2.2q-.65,2.05,1.65,2.45a8.492,8.492,0,0,1,2.6,1.2l1.19995,1.05a2.82477,2.82477,0,0,0,.6,2.45,2.33143,2.33143,0,0,0,2.3,0l1.4.8,5.3,3.9a2.0987,2.0987,0,0,0,1.65,2l2,.4q6.3,4.75,9.4,7.35a136.40952,136.40952,0,0,0,14.25,10.8q1.05.6,3.85,1.85a13.98917,13.98917,0,0,1,3.9,2.2q7.1,5.3,7.95,5.9a26.89324,26.89324,0,0,0,8.9,3.9q1.5.4,2.1-.6a1.84113,1.84113,0,0,0-.6-2.05,25.3857,25.3857,0,0,1-4.69995-5.95,46.29644,46.29644,0,0,0-4.1-6.5,25.81556,25.81556,0,0,0-3.85-3.45,40.28145,40.28145,0,0,1-3.9-3.5,59.14523,59.14523,0,0,1-5.5-6.5q-3.45-5.05-5.05-6.95l-1.25-1.2-2.45-3.8q-2.8-3.3-16.25-21.6-1.5-2.5-2.3-3.7l1.5-1a16.1099,16.1099,0,0,0,4.4-2q1.44991-.9,4.75-3.1a115.19659,115.19659,0,0,1,18.15-8.75l.8-.2a5.67066,5.67066,0,0,0,3,0l.4-1.2q4.1-1.5,12.05-4.1,3-1,8.15-2.85a32.86461,32.86461,0,0,1,4.7-.6,7.86974,7.86974,0,0,0,4.19995-1.85q.65-.65.2-2.65m-15.85,3.9a.79538.79538,0,0,0,.8-.65.78643.78643,0,0,0,0-1.05l3.1-.4a78.75152,78.75152,0,0,1,9.75-.8,6.92042,6.92042,0,0,1-3.4,1.2,23.4598,23.4598,0,0,0-3.9.25q-5.54993,2.05-8.55,3.05l-.2.2a1.79986,1.79986,0,0,0-.6-1.6l3-.2m-7.7,3.65q0-.6-1.05-1l-2-.85,5.65.85-2.6,1m-78.8-56.8-.2-1.65.4.8.2.65-.4.2m3.4,9.55a9.48851,9.48851,0,0,0,1.05-1.85v-.2l1.6,3.65-2.65-1.6m-1.2-1.45q0,.2-.8,1l-.8.25-.6-7.75a28.69536,28.69536,0,0,1,2.2,6.5m1.65,17.35,1,.4,1.85,3.85-1.05-2-1,1.6-.2-.4-1.85-5.75,1-.4.65,1.45a1.09036,1.09036,0,0,0-.4,1.25m10.4,17.5a1.595,1.595,0,0,0,1-1.65l1.2,1.45-4.1,1,1.9-.8m-8.4-5.95a8.94577,8.94577,0,0,0,3.3.65l-2.45,1.2-.65.45-.2-2.3m2.3,10.65-1.25-3.1h.2a6.31417,6.31417,0,0,1,1.45,2.7l-.4.4m2.6,9.95-1.2-.4a3.14834,3.14834,0,0,0,.8-1.2,1.43579,1.43579,0,0,0,.6,1l2,.6a2.42082,2.42082,0,0,0,1.7,1.6l.8.4a15.12125,15.12125,0,0,0-3.1,2.5,1.34608,1.34608,0,0,0-.6-1.2q1.6-2.1-1-3.3m-12.05,15.65-.2-.2v-.8l4.9-3.45-4.7,4.45m13.45-7.5-6.1,5.9a38.4677,38.4677,0,0,0,4.5-6.15h1.4l.2.25m-2.2,8.4-.4.2-2.85,3.8-1.85-.6a28.052,28.052,0,0,0,4.7-3.9l.4.5m15.45-17.55h1l1.30005,3.2-2.1-1.4a1.638,1.638,0,0,0-1-.6l.4-.2.4-1m7.35,0-.2-.4,6.3.2a1.63822,1.63822,0,0,0-1,.6h-.8l-4.3-.4m-11.4-5.35,1.85,2.9-1.65,1a1.60925,1.60925,0,0,0,.2-1.8,1.91135,1.91135,0,0,0-1.65-.85l1.25-1.25m.85,9.05.6,1.2-2.7.2.2-.2,1.9-1.2m-1.25,6.05-1.05005,1.05a1.661,1.661,0,0,0-2.05-.85v-.4l3.1.2m-3.9,7.8q-1,1-1.2.4a1.87141,1.87141,0,0,1,0-1.7l.4-.2,3.85-.8-.8,1h-.4a6.71958,6.71958,0,0,0-1.85,1.3m9.75-.7h4.3l-4.1,4.5q-.4-1.6-1.6-1.4h-2.19995l3.19995-2.4.4-.7m6.95.7a2.419,2.419,0,0,0,.85,1l-4.1,3,3.25-4m35.3-17.35-2.3-.8.2-.2q.19995-.45.8,0a7.48073,7.48073,0,0,1,1.3,1m-7.15,5.9a1.54987,1.54987,0,0,0-.25-2.2l3.7.8-3.45,1.4m-5.1.6,3,.4-8.1,4.3a52.78652,52.78652,0,0,0,5.1-4.7m-22.6,23.8.4-.2,2.85,3.1-.6.4a23.49746,23.49746,0,0,0-3.5-.2l.6-1.4.25-1.7m2.25,7.8.8.4-3.9,1.8,3.1-2.2m10.94995,16.85-.8.85-1.45-1.05,2.25.2m4.7-1-.8-1.4,2.6.4-1.8,1m-8.15-4.5a1.41981,1.41981,0,0,0,.19995,1.2h-1.6l1.4-1.2m-8.75-1.8h.19995l4.85-.4-2.4,2.2-2.65-1.8m15.69995,12.05-1.05-1.05,1.05-.65a17.1907,17.1907,0,0,0,4.7,3.5l.2.2a4.08692,4.08692,0,0,0,0,1.8l-4.9-3.8m7.1,5.4,2,.3a23.36963,23.36963,0,0,0,4.35,3.2l4.2,3.5-3.6-2.05a51.13433,51.13433,0,0,1-6.95-4.95m.8-8.7-.8-.4.4-.4.4.8m-43.75-20,2.2-1.2-1,1.4h-1l-.2-.2m15.85.4h.80005a16.27931,16.27931,0,0,1-4.2,3.1l3.4-3.1m-19.55-11.55.6.4,1.7,1.85a18.44876,18.44876,0,0,1-5.5,0l3.2-2.25m-6.3-2.5q.2-.2.8,0l-.6,1.1-.2-1.1m-5.05,0,1.6-.6-.2.4-.6.4a17.77961,17.77961,0,0,1-2.9,2.5l1.2-2.7q.4.45.9,0m1.4,9.85v.8l-1.4.6,1.2-2.6.6-.45-.4,1.65m-6.9,4.2-.85,5.35-.6.4a30.19383,30.19383,0,0,1,1.05-6.35l.4.6m-1.25,18.8a6.04994,6.04994,0,0,0,3.05,1.4l-.2.2q-2.2,1.65-1,3.3l-2.5,6.9-.2.2.85-12m0-6.75,1.25,1-1.25.8v-1.8m39.7-2.8-.6-.4.6-.2v.6m47.65,30.7,2.9,5.1-4.3-2.6a2.54917,2.54917,0,0,0,1.4-2.5m-128.85-74.35a1.58355,1.58355,0,0,0-1.7.2,25.21067,25.21067,0,0,1-5.05,3.5v-1.6l-.4-.8q7.35-2.3,20.75-3.1l-3.25.6a32.74274,32.74274,0,0,0-5.35,1.4q-4,1.5-4.8,1.7v-.4q.4-1.1-.2-1.5m-4.3,5.7-.85-.2.6-.4.25.6m-4.75-1.6-4.2-1.4,4.4-.8-.2,2.2m11.25,3.05,2.6.2v.2l-3-.2.4-.2m32.6-9.95-1.9,1.2q-.2,0-.8-1.6l4.7-.65-1,.85-1,.2m.2,5.9,1-1.2,1-.2-.4.2a30.01106,30.01106,0,0,1-2.2,2.6,2.98291,2.98291,0,0,1-2.7,1.4l3.3-2.8m-6.9-1.8,2.8-.2a23.24043,23.24043,0,0,1-5.5,3.6l2.7-3.4m11.15,6.7,1.4-1.45h1.05l-2.45,1.45m.6,66.55.6-8.15a2.56334,2.56334,0,0,0,1.9,2.05,6.35435,6.35435,0,0,0-1.25,2.7,21.23613,21.23613,0,0,1-1.05,3l-.2.4m-455.4-184.1q-16-1.05-26.15-2.35a42.1646,42.1646,0,0,1-6.8-.1,2.00019,2.00019,0,0,0-1.9,1.15,48.90586,48.90586,0,0,0-3.3-4.15.73554.73554,0,0,0-1.15.25q-.55.5.05,1.15,2.8,2.3,11.65,18,12.05,21,13.2,22.8a70.279,70.279,0,0,1,7.2,9.2,135.65988,135.65988,0,0,0-13.2,25.9q-7.45,19.35-11.05,26l-.65.2a2.3153,2.3153,0,0,0-1.5,1.25,1.46811,1.46811,0,0,0,.35,1.7l-.7,1.25a1.80335,1.80335,0,0,0,.85,2.9q1.95,1.25,3-.85l1.7-2.6h.55q4.85-.55,23.1-4.7,19.6-4.55,23.6-5.15l.4.2q-.4.85.45.55,5.8,5.65,17.65,18.35,11.6,12.45,17.1,18.75l3.05,2.8-1.15,4.15q-.55,1.5.9,1.9a1.76374,1.76374,0,0,0,2.1-1.05l1.45-6.25.25-.4q1.6-6.75,3.15-15.3,1.9-10.15,3.15-16.65,1.95-8.15,2.8-11.6a45.99323,45.99323,0,0,0,1.2-11l.4-.15q10.1-3.7,26.7-8.85,16.15-4.85,25.85-8.65l.4.55a1.68694,1.68694,0,0,0,2.3.1,1.5743,1.5743,0,0,0,.6-1.95q1.8-.7.85-2.6-.85-1.85-2.5-1.15l-1.4.6-2.8-2.75q-6.85-4.5-18.75-12.1-11.1-7-18.7-12l-8.1-3.7q-1.3-11.45-2.9-20.3-2.95-20.4-5.85-32.05l.6-.85a1.75026,1.75026,0,0,0,.45-2.15,1.59337,1.59337,0,0,0-1.9-.6.95657.95657,0,0,0-1.15-.7,1.01064,1.01064,0,0,0-.7,1.25l.35.65q-4.9,4.1-7.6,6.8-11.3,10.85-20.15,17.8-4.55,3.5-6.5,5.2a25.18287,25.18287,0,0,0-5.15,5.8,135.68793,135.68793,0,0,0-25.7-4.5m-26.55,1.55q3.95.45,25.7,1.6a115.98214,115.98214,0,0,1,25.25,3.8l-.45.7a1.44987,1.44987,0,0,0,.7,2.15,1.6298,1.6298,0,0,0,2.4-.8,17.64153,17.64153,0,0,1,5.3-7q2.2-1.65,7.4-5.45,10.2-8.1,20.45-18l5.75-5.85a135.16446,135.16446,0,0,1,2.1,15.3,134.6143,134.6143,0,0,0,2.3,15.85q2.85,16.2,3.1,18.35l-1.3-.65a1.43864,1.43864,0,0,0-2.25.65,1.38216,1.38216,0,0,0,.6,2.2,106.59657,106.59657,0,0,0,11.85,6.15q7.5,5.25,18.5,12.05,11.6,7.3,18.45,11.9l1.25,1.15q-8.95,3.5-24.1,8.55-15.8,5.25-25.5,8.85v-.55q0-.85-1.05-.65-1,0-1,.9a36.82956,36.82956,0,0,1-.85,12.95q-.85,3.85-3.3,12.75-4.55,23.25-6.1,29l-.85-.9q-4.85-5.7-16.7-17.85-10.75-10.85-17.85-17.95a1.23428,1.23428,0,0,0,.75-1.9,1.95086,1.95086,0,0,0-2.2-.95l-1.6.25a1.92434,1.92434,0,0,0-1.95.15q-6,1.05-22.85,4.15-16.4,3.15-21.15,3.85,2.3-5.1,8.9-23.8a115.10216,115.10216,0,0,1,11.4-23.75l.25.55a1.82273,1.82273,0,0,0,2.45.6,1.577,1.577,0,0,0,.55-2.3q-3-4.7-4.35-6.65a59.88826,59.88826,0,0,0-4.75-6.3q-19-29.8-21.65-33.5,2.1.25,6.4.4m8.95,7.45h-1.25q-1.55-.15-1.55,1.35a1.14613,1.14613,0,0,0,1.3,1.35l1.65.25q2.3,3.85,7,11a103.95585,103.95585,0,0,1,6.9,11.4l11.1,14.85a48.13711,48.13711,0,0,1-5.55,8.85,80.674,80.674,0,0,0-6.15,8.95,76.56691,76.56691,0,0,1-6.55,9.7q-1.2,2.35-3.35,7.65l-1.5.25q-1.35.25-1.55,1.95a1.68689,1.68689,0,0,0,1.35,1.75l-.5,1.05q-.6.8.25,1.25a.88514.88514,0,0,0,1.3-.45l1.15-1.85q1.3-.15,6.55-.6a23.0354,23.0354,0,0,0,6.4-.85,67.86734,67.86734,0,0,0,8.85-1.4q3.15-.6,8.55-1.9a31.41389,31.41389,0,0,1,8.55-.95q.45.7,1.7,2.85a13.67747,13.67747,0,0,0,2,3.3,41.03482,41.03482,0,0,1,4.35,5.65,30.11216,30.11216,0,0,0,4.7,5.35,42.89468,42.89468,0,0,0,7.55,8.85q6.4,5.35,8.7,7.7.1,1,1,1,1,.15,1.1-1,.45-2.05,1.35-5.45.85-3.25,1.3-5.7a62.21119,62.21119,0,0,0,2.55-14.55,85.49137,85.49137,0,0,1,1.3-9.3q1.5-.85.35-2.8a48.57885,48.57885,0,0,0,.45-8.6l.85.1q2.6.3,2.6-1.85l1.6-.15q2.15.85,2.7-.85l5.25-1.85a46.96515,46.96515,0,0,1,8.3-2.25l1.25.85a2.02816,2.02816,0,0,0,2.3.3,1.49459,1.49459,0,0,0,.85-2,44.83273,44.83273,0,0,0,9.15-2.9q6.4-2.55,9.25-3.35,1.35.7,2.05-.8a1.3916,1.3916,0,0,0-.75-2.1q-4.15-1.95-8.8-4.6-5-3.35-8.3-5.25l-1.45-1.15a1.85525,1.85525,0,0,0-2-.45,77.31493,77.31493,0,0,1-12.4-8.2,79.42033,79.42033,0,0,0-10.1-4.65,74.79569,74.79569,0,0,1-2.5-13.8,1.464,1.464,0,0,0-.1-1.7q-.2-3.75-.2-11.45a117.7425,117.7425,0,0,0-.25-13.1,1.47549,1.47549,0,0,0-.7-1.4,1.92425,1.92425,0,0,0-1.3.15q-.6-.3-1.1.4a103.17344,103.17344,0,0,1-14.7,14.65,187.48364,187.48364,0,0,0-15.4,13.6,1.81766,1.81766,0,0,0-1.05-1.15l-27.5-5.7a60.82611,60.82611,0,0,1-8.5.25q-.25,0-9.4-.5a1.70417,1.70417,0,0,0-1,0m3.15,3.35,5,1a4.439,4.439,0,0,0-1,2.75l.15,1.7a54.88349,54.88349,0,0,1-4.15-5.45m14,10.05a14.826,14.826,0,0,1-3.45-2.6,5.05049,5.05049,0,0,1-1.55-3.7l.15-.3a2.68131,2.68131,0,0,0,1.75,1.75v.5q.7,2.45,4.2,3.5l-1.1.85m25-5.85-.55,1-.05.7a16.83382,16.83382,0,0,0-3.75-2.15l4.35.45m3.7,5.55v-.55l3,1.15a9.63745,9.63745,0,0,0,3,4.4q1.3,1.25,3.95,3.95l.5.6q2.4,3.6,3.1,4.4l12.3,14.7a63.24923,63.24923,0,0,1-5.7-5.15q-4.3-4.85-10.2-11.85-6.35-7.65-9.95-11.65m14.3-11.3a2.95367,2.95367,0,0,0-.75,2.25,5.71675,5.71675,0,0,0-2.85-.25l9.15-9.3a3.78706,3.78706,0,0,0,.25,2.6q-.55.9,0,3.4a15.53872,15.53872,0,0,1,4.45,4.7l-4.2-3.65.2.8-.4-.4q-3.65-1.95-5.85-.15m-8.85,7q1-.75,2.55-2.15a13.25875,13.25875,0,0,0,1.85,4,26.9106,26.9106,0,0,0-4.4-1.85m13.5-2.3q-2.45-1.25-1.85-1.85.3-.3,1,1a38.63268,38.63268,0,0,1,7.45,5.85q2,2,6.4,7a2.32316,2.32316,0,0,0,1.45.85,2.234,2.234,0,0,0-.05,1.55q.05.65.85.9l.35.45-.45-.3a45.21763,45.21763,0,0,1-4.4-4.15,128.266,128.266,0,0,1-10.75-11.3m3.85-13.5a1.41539,1.41539,0,0,0-1.3.25l2.75-3.3.1,1.15-.35.25a2.25526,2.25526,0,0,0-1.2,1.65m9.45-9.45-.55-.4-1.3-.15,1.85-2.2v2.75m-2.7.7v2.75l-2-.7,2-2.05m-3.35,4.6h-.85l.85-.85v.85m6,3.3-1.1-.8a1.55961,1.55961,0,0,0,1.1,0v.8m-3.25,5.8-.55-.55q-.2-.2-2.3-1.6-1.4-.95-.55-1.3l.65-.15,2.2,2.2.55,1.4m-5.25-1.55,1.85,2.6-1-1.3q-2.6-.6-1.75-.9l.9-.4m40.8,43.5.6.3,6.4,7.45-1.9.3-.3-.6a20.666,20.666,0,0,0-1.95-2.9l-2.85-4.55m13.85,6.45-2.7.45q.55-.45,0-1.3l-.9-.85,3.6,1.7m-3.45.6-.6.2-.65-1.35,1.25,1.15m-8.7,1.4h-1.1l-1.85-2.4a39.59,39.59,0,0,1-3.85-5.05q1.35,1.4,3.55,3.55a14.85931,14.85931,0,0,1,3.25,3.9m-9.4-12.3.55,1.4-3.45-3.2,2.9,1.8m-7.45-.55-.85-1.6q6.9,9.4,12,15.15h-1.25q-1.6-2.6-4.5-6.4-3.7-4.7-5.4-7.15m-13-11.6-1-.8a3.47951,3.47951,0,0,0,1.85,0q.5.25,6.05,3.85l-.3,1.45a13.707,13.707,0,0,0-3.75-3.3,2.34438,2.34438,0,0,0-2.25-.05,1.69339,1.69339,0,0,0-.6-1.15m-3.8,5.85q-1.2-1.65-.05-2.25.6-.45.85.9a4.71445,4.71445,0,0,0,.2,1.7l2.95,4a47.691,47.691,0,0,0,2.9,4.5l2,3.15q-5.2-7.25-6.35-9.15-1.65-1.95-2.5-2.85m-3.85-5.35-.5,1.2-1.95-3.1,2.45,1.9m-3.05,8.5-.1.75-8.45-9.6a29.12182,29.12182,0,0,1-3.85-5.1q4.4,3.7,12.4,13.85v.1m-.95,15.9.45.65-.6.7-11.7-14.5,2.25,2.4q3.85,4.25,9.6,10.75m22.2,0,2.2,2.7-.85.15-1.35-2.85m-17.2,26.55.7.5-.7,5.3a44.69537,44.69537,0,0,1-.45,5.6q-1.7-2.55-2.55-3.7a2.06679,2.06679,0,0,0,1.5-.85,1.81421,1.81421,0,0,0,.45-1.85l.3-1.2v-1.6q.9-.55.75-2.2m-5.9,27.4a2.884,2.884,0,0,0,2.05-.8,2.60487,2.60487,0,0,0,.65-1.5l.3-.85-.55,5.85-2.45-2.7m-14.5-62.45-.05,1.65a66.85237,66.85237,0,0,0-8.7-8.9,2.76618,2.76618,0,0,0,1.55-.6l2.2,1.75,5.25,5.7-.25.4m-16.75,8.5a22.86117,22.86117,0,0,1-3.45-3.75q-2.5-2.4-2.8-3.45.6.5,2.1,1.7a37.7156,37.7156,0,0,1,4.15,5.5m7.85-.2-.95-1.15.95-.1.15,1-.15.25m20.75,5.75-.3-.05q-3.2-3.15-4.7-4.7a12.7756,12.7756,0,0,1-3.3-4.95,84.34649,84.34649,0,0,1,8.3,9.7m-16-7.4,2.5,1.85,2.3,3.35a1.90936,1.90936,0,0,0-1.7.35,8.64326,8.64326,0,0,0-3.1-3.05l-.85-2.8.85.3m1.95,14.25.55-.75,1.05,2.4-1.6-1.65m10.55-5.4.6.7a59.17447,59.17447,0,0,1,7.3,10.55l-3.45-4.15a55.22693,55.22693,0,0,1-4.45-7.1m-41.75-27.6,1.85,1.05a2.42751,2.42751,0,0,0,.15,1.55l.15.55-2.15-3.15m2.95,20.85.4-.7.45.7h-.85m-3.8,23.25q2.5-1.6,1.15-3.3,3.05,0,4.1-.85,3.85,2.85,7.25,1.6l1.15-.7a9.20831,9.20831,0,0,0,4.15-.05h.45l.65.2q-.65.7-.4,1.15a115.7693,115.7693,0,0,0-14.25,1.65,68.93758,68.93758,0,0,1-8.85,1.45l-.9.15a3.40432,3.40432,0,0,0,.6-1.55q3.45,1.4,4.9.25m32.8,9.45v.7a35.36966,35.36966,0,0,0-4.25-5.15,50.034,50.034,0,0,0-4.8-5.45,1.11782,1.11782,0,0,0-.55-1l1.45.15h.7l7.45,10.75m796.4-74.55q-.2-.7-1.1-.6a.89117.89117,0,0,0-.6,1.1l.3.7q-4.55007,3.75-7,6.2-10.5,10.1-18.7,16.55-4.25006,3.25-6.05,4.85a22.2137,22.2137,0,0,0-4.75,5.35,124.57048,124.57048,0,0,0-23.8-4.15q-14.85-1-24.25-2.2a36.7765,36.7765,0,0,1-6.35-.1,1.83213,1.83213,0,0,0-1.75,1.1,31.74072,31.74072,0,0,0-3.1-3.85.69152.69152,0,0,0-1.05.2q-.5.45.05,1.05,2.6,2.2,10.8,16.75,11.2,19.45,12.25,21.05a63.29986,63.29986,0,0,1,6.65,8.6,124.1424,124.1424,0,0,0-12.15,23.95q-6.94995,18-10.3,24.15l-.6.2a2.18335,2.18335,0,0,0-1.4,1.15,1.49672,1.49672,0,0,0,.3,1.6l-.6,1.1a2.04711,2.04711,0,0,0,3.6,1.95l1.55-2.45h.5q4.45-.5,21.4-4.35,18.19995-4.15,21.95-4.75l.3.2q-.3.8.5.5,5.30008,5.25,16.3,17,10.8,11.6,15.85,17.4l2.85,2.6-1.1,3.85a1.21162,1.21162,0,0,0,.9,1.8,1.60047,1.60047,0,0,0,1.9-1l1.35-5.85.2-.3q1.5-6.35,3-14.25,1.75-9.4,2.85-15.4,1.8-7.55,2.55005-10.8a42.52486,42.52486,0,0,0,1.19995-10.2l.30005-.1q9.4-3.45,24.85-8.2,14.9-4.55,23.9-8l.4.5a1.56931,1.56931,0,0,0,2.1.1,1.419,1.419,0,0,0,.6-1.8q1.65006-.7.8-2.5a1.73724,1.73724,0,0,0-2.4-1.05l-1.30005.6-2.55-2.6q-6.35-4.15-17.4-11.15-10.3-6.55-17.30005-11.2l-7.55-3.35q-1.2-10.7-2.65-18.9-2.8-18.9-5.45-29.7l.6-.8a1.57121,1.57121,0,0,0,.4-1.95,1.645,1.645,0,0,0-1.8-.6m-5.95,10.1,5.35-5.45a122.83411,122.83411,0,0,1,2,14.25,130.57234,130.57234,0,0,0,2.05,14.65q2.7,15,2.9,17l-1.2-.6a1.3398,1.3398,0,0,0-2.1.6,1.35456,1.35456,0,0,0,.6,2.1,93.70362,93.70362,0,0,0,11,5.7q6.9,4.85,17.1,11.1,10.8,6.8,17.1,11.1l1.2,1.05q-8.3,3.2-22.35,7.95-14.65,4.8-23.65,8.2v-.5q0-.8-1-.7-.85008,0-.85.9a34.96278,34.96278,0,0,1-.8,11.95q-.8,3.55-3.1,11.9-4.25,21.55-5.6,26.9l-.8-.9q-4.55-5.25-15.55-16.5-10-10.1-16.5-16.65,1.3-.6.7-1.75a1.872,1.872,0,0,0-2.1-.9l-1.5.2a1.66123,1.66123,0,0,0-1.75.2q-5.55.95-21.19995,3.85-15.2,2.85-19.65,3.55,2.15-4.75,8.3-22.05a105.3756,105.3756,0,0,1,10.6-22.05l.19995.5a1.727,1.727,0,0,0,2.25.55,1.46748,1.46748,0,0,0,.5-2.15q-2.75007-4.35-3.94995-6.15a53.20909,53.20909,0,0,0-4.45-5.8q-17.6001-27.6-20.1-31.1,2,.2,5.95.4,3.65.4,23.85,1.5a107.62814,107.62814,0,0,1,23.44995,3.45l-.5.7a1.3761,1.3761,0,0,0,.7,2q1.55.55,2.15-.7a17.70414,17.70414,0,0,1,4.95-6.55q2.09994-1.6,6.85-5.05,9.45-7.5,18.95-16.7m35.65,74.9a78.21723,78.21723,0,0,1,8.6-3.1,1.21841,1.21841,0,0,0,1.85-.8,1.30872,1.30872,0,0,0-.65-1.95q-3.90006-1.8-8.15-4.25-4.65-3.1-7.7-4.85l-1.4-1.1a1.79912,1.79912,0,0,0-1.85-.4,75.2206,75.2206,0,0,1-11.5-7.6,74.44357,74.44357,0,0,0-9.3-4.35,70.54867,70.54867,0,0,1-2.35-12.8,1.24108,1.24108,0,0,0-.1-1.55q-.19995-3.45-.2-10.6a111.06783,111.06783,0,0,0-.19995-12.15,1.38239,1.38239,0,0,0-.7-1.3,1.92351,1.92351,0,0,0-1.2.2.70724.70724,0,0,0-1,.3,93.63677,93.63677,0,0,1-13.65,13.55,179.22143,179.22143,0,0,0-14.19995,12.65,1.836,1.836,0,0,0-1-1.1l-25.55005-5.2a56.003,56.003,0,0,1-7.9.2q-.20006,0-8.7-.4a1.05974,1.05974,0,0,0-.9,0h-1.19995q-1.35-.2-1.35,1.15-.1,1.3,1.15,1.3l1.5.2q2.2,3.55,6.55,10.2a111.96674,111.96674,0,0,1,6.4,10.6l10.3,13.75a51.89962,51.89962,0,0,1-5.15,8.2,80.30115,80.30115,0,0,0-5.75,8.3,67.45607,67.45607,0,0,1-6,9,77.27023,77.27023,0,0,0-3.2,7.1l-1.35.2q-1.30005.2-1.4,1.8a1.63119,1.63119,0,0,0,1.2,1.7l-.4.95q-.6.7.19995,1.1a.79057.79057,0,0,0,1.2-.4l1.05-1.65q1.2-.2,6.05005-.6a20.88612,20.88612,0,0,0,5.94995-.8,54.76238,54.76238,0,0,0,8.2-1.3q2.95-.6,7.9-1.75a30.90412,30.90412,0,0,1,7.9-.9q.5.7,1.6,2.65a13.31624,13.31624,0,0,0,1.9,3.1,31.72732,31.72732,0,0,1,4.05005,5.2,24.70108,24.70108,0,0,0,4.35,4.95,39.58753,39.58753,0,0,0,7,8.25q5.94993,4.95,8.05,7.1.10006,1,.95,1,.90006.1,1-1,.4-1.9,1.3-5.05.8-2.95,1.2-5.25a59.98157,59.98157,0,0,0,2.35-13.55q.3-3.65,1.2-8.6,1.4-.8.3-2.55a40.12569,40.12569,0,0,0,.4-8.05l.8.1q2.45.3,2.45-1.65l1.5-.2q1.95.8,2.45-.8l4.85-1.7a48.2624,48.2624,0,0,1,7.7-2.05l1.2.8q1.29994.85,2.1.3a1.44049,1.44049,0,0,0,.8-1.9,38.41448,38.41448,0,0,0,8.5-2.65m7.4-3.7-2.45.4q.45007-.4,0-1.15l-.9-.8,3.35,1.55m-3.75.7-.6-1.2,1.19995,1.1-.6.1m-40.65-59.45,1.65-2.05v2.55l-.5-.3-1.15-.2m-.8,3.75-.8-.4-1.1-.3,1.9-1.85v2.55m1.4,3.95a1.17176,1.17176,0,0,0,.95,0v.8l-.95-.8m-2,6.15-.5-.5q-.20006-.2-2.15-1.45-1.3-.9-.5-1.2l.6-.2,2.05,2.05.5,1.3m4.15,19.9a1.85851,1.85851,0,0,0-.1,1.35,1.0262,1.0262,0,0,0,.8.9l.4.4-.5-.3a30.65225,30.65225,0,0,1-4.05-3.85,108.79883,108.79883,0,0,1-10-10.5q-2.24991-1.05-1.7-1.65.29992-.3.9.9a37.08255,37.08255,0,0,1,6.95,5.4q1.8501,1.9,5.9,6.55a2.19425,2.19425,0,0,0,1.4.8m1.80005,3.45a3.45229,3.45229,0,0,0,1.65,0q.5.2,5.65,3.55l-.3,1.4a11.338,11.338,0,0,0-3.45-3.05,2.14049,2.14049,0,0,0-2.1-.1,1.71765,1.71765,0,0,0-.55-1.1l-.9-.7m-8.5-31.75H860.013l.80005-.8v.8m-1.7,2.05-.3.2a2.57674,2.57674,0,0,0-1.2,1.6,1.21049,1.21049,0,0,0-1.15.2l2.55-3.05.1,1.05m-1.5,5.25.9-.3,1.7,2.4-.9-1.2q-2.49995-.6-1.7-.9m-24.5,10-.5,1-.1.6a18.06305,18.06305,0,0,0-3.5-2l4.1.4m3.45,5.15v-.5l2.75,1.1a9.89658,9.89658,0,0,0,2.8,4.05q1.1499,1.2,3.65,3.65l.5.6a32.88375,32.88375,0,0,0,2.85,4.05l11.4,13.65a43.33669,43.33669,0,0,1-5.25-4.85q-4.05-4.45-9.5-10.95-5.84994-7.05-9.19995-10.8m18.8-10.7.2.7-.30005-.3q-3.45-1.75-5.44995-.2a2.85211,2.85211,0,0,0-.7,2.1,6.21243,6.21243,0,0,0-2.65-.2l8.5-8.6a2.94441,2.94441,0,0,0,.2,2.35,5.01257,5.01257,0,0,0,0,3.2,14.50432,14.50432,0,0,1,4.15,4.35l-3.95-3.4m-13.75,6.75q.9-.7,2.35-2a12.9088,12.9088,0,0,0,1.7,3.7,26.88251,26.88251,0,0,0-4.05-1.7m18.6,23.05-7.85-8.9a32.66931,32.66931,0,0,1-3.55-4.75q4.05,3.45,11.5,12.85v.1l-.1.7m-15.05,6.15-.1,1.55a60.38033,60.38033,0,0,0-8-8.3,2.26478,2.26478,0,0,0,1.35-.6l2.1,1.7,4.85,5.25-.2.4m-3.85,6.2,2.25,1.7,2.19995,3.05a1.84392,1.84392,0,0,0-1.6.4,8.85566,8.85566,0,0,0-2.85-2.85l-.80005-2.6.80005.3m18.6,2.3-.6.6-10.9-13.4,2.1,2.2q3.55,3.95,8.9,10l.5.6m-8.4.1a12.01654,12.01654,0,0,1-3.1-4.55,68.14983,68.14983,0,0,1,7.75,9l-.3-.1q-3-2.9-4.35-4.35m-25.75-5.85a33.76339,33.76339,0,0,1,3.85,5.15,37.08861,37.08861,0,0,1-3.25-3.45,10.90754,10.90754,0,0,1-2.55-3.3q.59994.5,1.94995,1.6m11.30005,4.75-.2.2-.8-1.1.8-.1.2,1m-7.15,19.1h.4l.6.2q-.59994.7-.4,1.05a101.20417,101.20417,0,0,0-13.15,1.5,53.81138,53.81138,0,0,1-8.2,1.4l-.9.1a2.88217,2.88217,0,0,0,.6-1.4q3.15,1.3,4.55.2,2.25-1.5,1.1-3.05a6.3017,6.3017,0,0,0,3.75-.8q3.55,2.65,6.7,1.5l1.1-.6a8.40418,8.40418,0,0,0,3.85-.1m4.95,1.65,1.4.2h.6l6.9,10v.6a33.55,33.55,0,0,0-3.85-4.75,43.41272,43.41272,0,0,0-4.55-5.05,1.23118,1.23118,0,0,0-.5-1m22.15-7.3a55.16518,55.16518,0,0,1-4.15-6.55l.6.6a57.15507,57.15507,0,0,1,6.75,9.8l-3.2-3.85m-12.44995-.1-1.5-1.5.5-.7,1,2.2m41.94995-26.4,2.65,1.55.5,1.3-3.15-2.85m-4.25,1.1-.8-1.5q6.45007,8.7,11.2,14.05h-1.2q-1.5-2.4-4.15-5.95-3.45-4.35-5.05005-6.6m18.80005,11.55-.30005-.6a14.15031,14.15031,0,0,0-1.8-2.65l-2.65-4.25.6.3,5.9,6.9-1.75.3m-3.2.4h-.95l-1.7-2.3a25.527,25.527,0,0,1-3.55-4.65q1.2,1.3,3.25,3.3a12.16433,12.16433,0,0,1,2.95,3.65m-31.15-17.3q-1.1499-1.5-.1-2.1.6-.4.8.9a7.5619,7.5619,0,0,0,.2,1.6l2.75,3.65a35.81042,35.81042,0,0,0,2.7,4.15l1.85,2.95q-4.8-6.7-5.9-8.5-1.50009-1.75-2.3-2.65m-3.55-4.95-.5,1.1-1.75-2.9,2.25,1.8m.9,47.25.69995.4-.69995,4.95q-.3,5.05-.4,5.25-1.6-2.35-2.4-3.45a2.17077,2.17077,0,0,0,1.4-.8,1.65341,1.65341,0,0,0,.4-1.7l.3-1.15v-1.5q.9-.5.7-2m18-22.15-.80005.2-1.3-2.65,2.1,2.45m-20.95,45.4.25-.75-.45,5.4-2.3-2.45a2.59554,2.59554,0,0,0,1.9-.8,2.46859,2.46859,0,0,0,.6-1.4m-54.05-85.15v.4q.59994,2.25,3.85,3.25l-.95.8a18.81282,18.81282,0,0,1-3.3-2.35,5.06836,5.06836,0,0,1-1.35-3.5l.1-.3a2.67081,2.67081,0,0,0,1.65,1.7m-6.4-1.4.1,1.6a60.38986,60.38986,0,0,1-3.9-5.05l4.65.9a4.336,4.336,0,0,0-.85,2.55m15.2,20.6a1.78889,1.78889,0,0,0,.2,1.35l.1.5-1.95-2.85,1.65,1m1,18.3.4-.6.4.6h-.8m1088.7,556.3q-1.95007-17.00007-17.65,12.1-23.5501,42.85-35,53.3,1.30005-10.15-2.3-15.7-6.19976-10.15-14.04992-10.15-6.55005,0-11.45008,7.55005a22.44675,22.44675,0,0,0-3.6,15.05q1.65015,9.15,10.45007,13.7,17.6999,8.84994,32.04993-6.55005,7.20007-7.50009,27.8-43.8,9.15,14.70007,8.2,30.75-.65,6.85006,3.25,8.15,3.6,1.65,6.55-2.6,13.09991-19.6,6.85-36.3-10.1001-16.35-11.1-25.5m-304.35-5.95q-6.85-11.14993-9.45007-13.75-7.5498-6.85-16.7-1.3-9.8,5.9-7.20008,16.35,2.65009,9.8,13.1001,13.75,29.1,10.75,49.69995-41.25,3.30012-8.80005,9.5-8.80005,6.55005,0,46.45,2.95,6.49989.3,3.9,5.85-18.65,37-24.2,29.8a46.82432,46.82432,0,0,0-5.55-8.85q-4.6-4.55-11.79993-1-11.1,5.6-8.5,16.7,2.6501,11.1,13.75,13.1,31.4,5.55,54.29993-71.65,2.6001-9.15006-8.5-10.1-24.85-.7-51.35-3.6-15.05-1.65-23.55,20.6-11.79986,30.4-23.8999,41.19995m-30.15-333.95a112.16571,112.16571,0,0,1-13.3,1.1q-4.29987-.25-12.75-3.75a3.08338,3.08338,0,0,0-3.75.95q-1.7,1.7.45007,3.4a157.69931,157.69931,0,0,1,31.8999,31.15q20.65009,26.65,12.05,44.15-5.89983-12.65-13.4-16.05-6.50007-2.75-11.2,1.6a10.74824,10.74824,0,0,0-3.5,10.5q1.29986,7.2,9.75,11.45a16.48621,16.48621,0,0,0,13.15.85,16.21427,16.21427,0,0,0,10.5-9.55q8.00007-19.3-21.20007-54.1,8.54993-1.9,13.5-1.55a21.01556,21.01556,0,0,1,12.55,5.2q3.15,2.65,3-1.2-.1-3.9-3.25-9.45-8.9-15.7-24.5-14.7m.85,7q-7.1001.35-11.1-1.6a103.87211,103.87211,0,0,0,11.35-1.2,15.98058,15.98058,0,0,1,11,3.25q-3.05-.8-11.25-.45m5.05005,70q-.7.75-2.65-.1-4.79993-2.2-7.45008-9.8,7.35,2.3,9.9,7.15,1.04993,1.9.20007,2.75m-236.5-170.85q-.95013.55-.5,1.3a23.29263,23.29263,0,0,1,2.1,5.45,36.56744,36.56744,0,0,0,1.95,5.55,61.95359,61.95359,0,0,0,6.3,14.1l3.9,8.5a2.31757,2.31757,0,0,0,1.25,2.6,86.09632,86.09632,0,0,0,4.54993,7.4l-.79993.45q-2.3,1.3-1.30005,3.05l-1.15,1.2q-2.25.5-1.75,2.3l-9.29993,11-1.6001-.15a1.99859,1.99859,0,0,0-1.7,3.35,37.07055,37.07055,0,0,0-6.05,7.6q-3.95,5.6-6.1,8.15a1.42476,1.42476,0,0,0-1.2,1.95q.19995,1.69995,1.79992,1.3a166.65131,166.65131,0,0,1,20.20008-1.4l1.9.15a1.54863,1.54863,0,0,0,1.85-.8,81.15512,81.15512,0,0,1,15.25.15,72.07768,72.07768,0,0,0,11.04992-1.7,65.93769,65.93769,0,0,1,10.25,10.2,1.29639,1.29639,0,0,0,1.1001,1.45q4.6,6.3,14.1,20.85a1.38032,1.38032,0,0,0,1.29992.5q.9-.25,1.05-.85.8.05.75-.95a90.38754,90.38754,0,0,1,4.4-20.75q4.25006-14,5.25-20.25a2.288,2.288,0,0,0,1.54992.45l26.65-10.8,7.15-4.9a84.9476,84.9476,0,0,0,8.35-5.1q.6.2.8-.45l1.15-.65a1.387,1.387,0,0,0,.54993-2.15q-.75-1.3-2-.35l-1.65.75q-14.79986-6.15-24.3999-11.15l-17.9-6.6a50.62631,50.62631,0,0,1-.25-10.6,94.16335,94.16335,0,0,0,.35-11,76.75854,76.75854,0,0,1-.05-12.05,66.43246,66.43246,0,0,0-1.5-8.3l.95008-1.1a1.5759,1.5759,0,0,0,.45-2.3,1.87291,1.87291,0,0,0-2.15-1.05l-.1499-1.2a.88509.88509,0,0,0-1.05005-.95q-.7.15-.65,1.15l-.15,2.35a60.415,60.415,0,0,0-10.04992,8.4q-4.15009,3.95-6.9,6.3-4.1001,4.4-5.94995,6.55a46.75852,46.75852,0,0,1-6.8501,5.45,47.07019,47.07019,0,0,0-6.7-3.05,63.42775,63.42775,0,0,1-6.85-2.15,24.86777,24.86777,0,0,0-7.1-2.1,29.54554,29.54554,0,0,0-11.3501-3.2,94.2892,94.2892,0,0,1-11.75-1.7q-.44988-.75-1.3999-.2m68.69995-3.25a2.12691,2.12691,0,0,0,.2,1.7q-3.75018,1.15-4.35,2.75-1.09992,2.45.85,3.6a8.18765,8.18765,0,0,0-3,2.8q-4.65-.4-6.8999,2.7l-.8501,1.25a6.45073,6.45073,0,0,0-3.3999,2.5l-.1001.3-.79992-.05q.25013-.95-.4-1.05a92.78994,92.78994,0,0,0,11.2-9.55q2.65009-2.05,6.8-6l.75-.95m37.5,54.3q-1.8001-1.25-5.5-.7l.6-1.1a25.43343,25.43343,0,0,1,4.35.35,4.73506,4.73506,0,0,1,3.45008,2.1l-.1.3q-.6-.7-2.45007-.35l-.35-.6m7.15-2.3-1.3-1.35,6.70007,2.3-4.75,2a6.78315,6.78315,0,0,0-.65-2.95m-55.55-12.65-.65.65-.75-.85.1001-.3,1.29993.5m-7.85,3.3-2.75-.7-.8-.6a2.39754,2.39754,0,0,0,1.05-1.3,14.37459,14.37459,0,0,0,4.25.8,8.02248,8.02248,0,0,1,2.45,1.95l-.8999.25-3.30005-.4m3.65,8.95-.15-.7-.6-1.45a41.99775,41.99775,0,0,0,12.29992,2.6q-.94976,1.1-.8999,1.6l-3-.35-7.65-1.7m33.15-9.15-1.15-1.15-.4-.25,3.65,1.45-2.1-.05m-14.25-5.65-2.70007-.2a43.04973,43.04973,0,0,1-7.04993-2.4,39.06472,39.06472,0,0,1,5.3999,1.25q3.30012.45,4.3501,1.35m4.6499,32.5-3.1499.8a13.0026,13.0026,0,0,0-5-2q-5.24982-1.1-5.8501-1.3l-.8999-.2a32.29368,32.29368,0,0,0-5-2l-18.65-5.65q2.2998.45,7.75,1.45,12.19995,2.95,30.54992,8.55l.25.35m-2.7,6.4-.94995,3.4a11.35192,11.35192,0,0,0-3.70007-2.5l4.65-.9m8.6-4.15-.29993-1.9a10.85043,10.85043,0,0,0,4.25-.15l-3.95007,2.05m-27.04993-2.35a24.37889,24.37889,0,0,1,6.25,2.3q-7.15008-.8-18.4-4.8l-.1-.2-.25-.85,12.5,3.55m10.35,16.05q.85-.25.7.35-.0498.35-.45.05-.75-.35-.95008-.2a34.60185,34.60185,0,0,1-9.54992-.65q-5.80005-1.55-9.6-2.4a1.99748,1.99748,0,0,0-1.70007.15,2.11908,2.11908,0,0,0-.54993-1.7l4.6499.9q11.49995,2.05,15.65,3.5a7.23013,7.23013,0,0,0,1.8,0m-.70008,4.55.3.1q4.1499-.35,5.1-3.2a2.20258,2.20258,0,0,0-.7-2.45,3.85555,3.85555,0,0,0,2.6-1.25l-2.5,13a4.40643,4.40643,0,0,0-1.69995-2.1q.05-.8-1.70007-2.9,1.70013-.2-1-.9l.8,1a19.54976,19.54976,0,0,1-6.4-1.4l5.6.4-.4-.3m-1,5.95a8.83745,8.83745,0,0,0,2-.15l-.5.85-1.79992-.8.29992.1m-3.8999,2.5.79993.05q.29993.05,3.1,0,1.55017.15,1.05.9l-.5.55-3.19995-.65-1.25-.85m7.44995,6.25.80005-.45-.30005.9-.5-.45m1.9-6.5-.85,4.3-.75-.85.1-.3a1.93686,1.93686,0,0,0,.25-2.15,9.06163,9.06163,0,0,0,1.25-1m-25.3-79.85.8.6-1.70008,1-12.54992-4.85-.45008-.75a36.40186,36.40186,0,0,0,6.6001,2.05,27.85342,27.85342,0,0,0,7.29993,1.95m-34.4,4.5a24.90155,24.90155,0,0,0,4.15,1.7q-2.15,1.75-.1,3.4l.45,1.25.75,1.35a2.54561,2.54561,0,0,0,.55,2.3l-.9.25-4.9-10.25m25.4,23.05a57.572,57.572,0,0,0,6.65,1.25,14.11531,14.11531,0,0,1,5.4,2.3,99.963,99.963,0,0,1-12.05-3.55m2-3.25-.95-.2a66.77941,66.77941,0,0,1-12.20008-4.75l5.20008,1.35q1.29986.55,7.95,3.6m-32.95-33.05.25.9-2.8-5.3,3.45007,1.1a1.99766,1.99766,0,0,0-1.1001,1.65,2.02579,2.02579,0,0,0,.20008,1.65m-4.20008,66.85.8-.75,9.1,3.25a36.40806,36.40806,0,0,1-9.9-2.5m4.20008-3.7,1.04992-.9a135.10252,135.10252,0,0,0,16.1001,6.1l1.75.8q-12.3501-4.4-18.9-6m-10.85,11.4,1.19995.3-3.75.6,1.80005-1.75q-.24993.9.75.85m12.04993-1.3-9.7-2.65,1.5-1.35,9,4h-.8m27.8-10.95a41.35674,41.35674,0,0,0-4.9-2.3l-3.65-1.45a71.36071,71.36071,0,0,1,10.70007,4.35,28.02892,28.02892,0,0,0,3.6.95q2.15.55,1.35,1.8-.15.6-.9-.25a4.45286,4.45286,0,0,0-1.6-1.4l-4.6-1.7m12.04992,3.85-.25-1.2,3.4,1.4-3.15-.2m-32.6-11.5.55-.85,2.79992,1.75-3.35-.9m1,16.35a15.41328,15.41328,0,0,0,4.05.75l.54992.2-3.3999.2-1.20007-1.15m26.65,0q-.50005.05-1.19995,1l-7.55005.25-.15-.7-.45-.8a15.46643,15.46643,0,0,0,4.9.5q1.79993.05,2.04993-.9l1.35.5,1.05.15m27.4,27.05-.35,2.5-1.8501-2.3,2.20008-.2m-.4,4.1-.35,3-1.55-2.15.75-.2,1.15-.65m-6.3-5.9-.29992-.6,1.29992.05a1.39479,1.39479,0,0,0-1,.55m70.8-142.55q1.35,2.35,5.7.65,19.55017-7.4,28.65-8.75,6.40008-1,27.6-3.7-14.44976-5.7-35.7-2-18.50005,3.35-24.6,9.1-2.65009,2.65-1.65,4.7m137.75-107.45q2.6999-9.45-8.75-10.45-25.60015-.7-52.9-3.7-15.50007-1.7-24.25,21.2-12.1,31.35-24.6,42.45-7.0501-11.45-9.75-14.15-7.74993-7.05-17.19995-1.35-10.0999,6.05-7.4,16.85,2.70007,10.1,13.5,14.15,29.95,11.1,51.2-42.45,3.3501-9.1,9.75-9.1,6.75,0,47.85,3.05,6.74982.35,4.05,6.05-19.19988,38.05-24.94995,30.65a50.26887,50.26887,0,0,0-5.70007-9.1q-4.75013-4.7-12.15-1-11.44976,5.75-8.75,17.2,2.70007,11.45,14.15,13.45,32.35,5.75,55.9-73.75m147.95,283.1a1.27777,1.27777,0,0,0-1.79992-1.05q-1.6.2-1.20008,1.65a160.26394,160.26394,0,0,1,1.3,18.8l-.15,1.75q-.2,1.3.70007,1.7a69.92028,69.92028,0,0,1-.15,14.15,65.82012,65.82012,0,0,0,1.65,10.3,65.99738,65.99738,0,0,1-9.5,9.55,1.11836,1.11836,0,0,0-1.3501.95q-5.85,4.3-19.35,13.1a1.432,1.432,0,0,0-.5,1.25,1.408,1.408,0,0,0,.8,1q-.05.7.9.6a85.21089,85.21089,0,0,1,19.29993,4.15,168.674,168.674,0,0,0,18.75,4.9,1.98333,1.98333,0,0,0-.4,1.4l10,24.7,4.6001,6.7a69.54656,69.54656,0,0,0,4.69995,7.75.50392.50392,0,0,0,.4.7l.6,1.1a1.28844,1.28844,0,0,0,2,.5,1.0815,1.0815,0,0,0,.35-1.85l-.65-1.55q5.65009-13.75,10.3-22.6l6.15-16.7a49.05375,49.05375,0,0,1,9.85-.15,85.25633,85.25633,0,0,0,10.2.3,66.32468,66.32468,0,0,1,11.20008-.05,65.72111,65.72111,0,0,0,7.75-1.35l1,.85a1.41962,1.41962,0,0,0,2.1.4,1.78493,1.78493,0,0,0,1.05005-1.95l1.04993-.2q.95013-.05.9-.95-.15-.65-1.05-.6l-2.25-.15a57.04563,57.04563,0,0,0-7.79992-9.35q-3.6-3.79995-5.8-6.4-4.1499-3.8-6.1-5.5a42.08212,42.08212,0,0,1-5.05-6.4,41.589,41.589,0,0,0,2.8501-6.2,43.05913,43.05913,0,0,1,2-6.35,22.44729,22.44729,0,0,0,1.94995-6.65,27.68349,27.68349,0,0,0,3-10.5,72.24015,72.24015,0,0,1,1.55005-10.9q.69983-.45.19995-1.35-.55-.9-1.25-.45a23.87924,23.87924,0,0,1-5.05,1.95,38.16075,38.16075,0,0,0-5.1499,1.8,58.87582,58.87582,0,0,0-13.1001,5.85l-7.8999,3.65a2.16245,2.16245,0,0,0-2.45007,1.15q-5.70007,3.3-6.85,4.2l-.4-.7q-1.25007-2.15-2.85-1.2l-1.1-1.05q-.49987-2.1-2.1-1.65l-10.25-8.6.1-1.5a1.72237,1.72237,0,0,0-1.1-1.95,1.86094,1.86094,0,0,0-1.95007.35,35.877,35.877,0,0,0-7.1-5.65q-5.2-3.65-7.55-5.7m1.8501,3.25q-.85-.2-.80005.7l-.25,1.15-.6-3.45,1.65,1.6m6.35,6.85.7.8-3.04993,8.4a34.31806,34.31806,0,0,1,2.35-9.2m3.45,3.9.8,1a130.66909,130.66909,0,0,0-5.65,14.95l-.75,1.65q4.1001-11.44995,5.6-17.6m-6.9-7.85,1.25,1.4-3.75,8.35.05-.75,2.45-9m15.55,16.25-1.6,2.6.79992-3.15.8.55m-5.75,14.05,1.4-3.45a73.02263,73.02263,0,0,1-4,10,15.46474,15.46474,0,0,0-.95008,3.35q-.50005,1.95-1.7,1.2-.55-.15.25-.85a3.20454,3.20454,0,0,0,1.30005-1.45l1.6-4.25q.15-.1,2.1-4.55m-10.9-9.95-.2.65-.15-3.25,1.05005-1.1a12.71288,12.71288,0,0,0-.70007,3.7m.15,12.75.75-.4a18.63214,18.63214,0,0,0-.5,4.6q.05,1.65.9,1.9l-.5,1.2-.1,1.05q-.05017-.5-.95007-1.15l-.2-7,.6-.2m5.1,12.85,1.1-.1-1.35,3.1.25-3m-8.6,9.5q1.45-5.35,2.25-8.9a1.935,1.935,0,0,0-.25-1.55,2.16825,2.16825,0,0,0,1.65-.5l-.85,4.3a126.1419,126.1419,0,0,1-3.25,14.55,6.51742,6.51742,0,0,0-.05005,1.65q.24995.8-.3.7-.29993-.1-.04992-.5.34991-.65.25-.85a31.302,31.302,0,0,1,.6-8.9m17.75-11.7-3.25,11.65a21.92711,21.92711,0,0,1-2.15,5.75,82.88705,82.88705,0,0,1,4.4-17.05l.2-.15.8-.2m.95,12.8,5.25-17.3q-.40008,2.1-1.29992,7.15-2.74987,11.4-7.95008,28.45l-.35.2-.7-2.95a11.87816,11.87816,0,0,0,1.79992-4.65q1.05012-4.85,1.20008-5.45l.25-.8a32.271,32.271,0,0,0,1.79992-4.65m12.1001-3.4.6499-.15,1.3501-.5a39.58727,39.58727,0,0,0-2.45007,11.4q-1.00013-.9-1.45-.85l.35-2.75,1.55005-7.15m40.75-45.45a1.80052,1.80052,0,0,0-1.55005.2l-.85.2,4.95-2.6-1,3.2a2.148,2.148,0,0,0-1.54993-1m-13.8501,5.35a26.18584,26.18584,0,0,0-1.6,3.8q-1.6-1.95-3.15-.05l-1.1499.4-1.25.7a2.54231,2.54231,0,0,0-2.15.5l-.20008-.8,9.5-4.55m7.20008,19.45.75-.4a32.55907,32.55907,0,0,0-2,6.1,27.45267,27.45267,0,0,0-1.75,6.8l-.55.75-.95-1.6,4.5-11.65m-21-6.25-1.25,4.85q-.49987,1.2-3.4,7.4l.25-.9a63.668,63.668,0,0,1,4.4-11.35m-7.6,10.35q-.6,2.3-1.20007,6.2a12.07137,12.07137,0,0,1-2.1,5.05,85.75211,85.75211,0,0,1,3.30005-11.25m5.25,10.8a13.562,13.562,0,0,0-.75,4,8.17658,8.17658,0,0,1-1.8501,2.25l-.2-.8.35-3.1.70007-2.5.54993-.75a1.83777,1.83777,0,0,0,1.20007.9m1.04993,8.45-.45,1.25-.6-.6.75-.75.29993.1m19.85-5.75q.80017.25,1-.3a77.38039,77.38039,0,0,0,8.8501,10.35,81.54356,81.54356,0,0,0,5.54993,6.35l.85.65a2.10534,2.10534,0,0,0-1.54992.2q-.99994-3.4-2.55-4-2.25-1.1-3.4.75a7.80979,7.80979,0,0,0-2.54992-2.8q.3999-4.25-2.5-6.4l-1.20008-.75a6.23116,6.23116,0,0,0-2.29992-3.2l-.25-.1.04992-.75m-17.7,18.1a33.89885,33.89885,0,0,1,2.2-6.5,33.64924,33.64924,0,0,1-1.1499,4.95q-.40008,3.1-1.25,4.05l.19995-2.5m-4.4,14.7.25-.4-1.35,3.4.05005-1.9,1.04993-1.1m-45.04993-18.6-.05005.3q.3501,3.9,2.95,4.7a2.10157,2.10157,0,0,0,2.3-.55,3.9084,3.9084,0,0,0,1.15,2.45l-12.05-2.35a4.41794,4.41794,0,0,0,1.95007-1.6q.75018.05,2.69995-1.55.15,1.55.80005-1l-.9.8a18.61543,18.61543,0,0,1,1.25-5.95l-.35,5.15.25-.4m13.1,8.2-3.1-.8a11.176,11.176,0,0,0,2.25-3.45l.85,4.25m19.9,29.5q1.1501-1.6.6-5.15l1.1.6a30.10152,30.10152,0,0,1-.35,4.05,4.611,4.611,0,0,1-1.95008,3.25l-.29992-.1q.65-.55005.35-2.3l.55005-.35m-14.1001-17.85-1.8999-3.65,1.75-.25a9.14653,9.14653,0,0,0,.1499,3.9m-24.29992-20.95-.1.25a14.11386,14.11386,0,0,0,.1499,1.85l-.75-.5.70008-1.6m-3.20008-2.25.8-1.15-.1.75q-.05.3,0,2.85-.1,1.5-.85,1l-.5-.45.6499-3m-1.8999,6.15a1.89907,1.89907,0,0,0,2.04993.25,9.0768,9.0768,0,0,0,.85,1.15l-4-.8.75-.65.3501.05m-4.20007-6.4.5-.3v1.2a1.54571,1.54571,0,0,0-.5-.9m-6.1,4.7.65,1.05-2.85-.25,2.04993-1.45.15.65m7.6,2-.85-.15.45-.55.4.7m-5.5-.8,2.1-1.75.25,2.05-2.35-.3m51.1,42.7a7.05443,7.05443,0,0,0,2.75-.65l1.25-1.2-2.1499,6.25-1.8501-4.4m-125.1499-282.6q-13.24987-12.5-25-3.2-11.80023,8.95-1.45007,30.75,5.70007,12.1,18.20007,31.4,6.4499,13.25,30.3999-15.35,23.55012-27.85,10.3501-41.45-8.95-8.9-18.95007-3.55-9.65,5.35-13.54993,1.4m171.1499-12.85q.40009,3.5-1.1499,4.25-1.55017.55-4-1.45-4.0999-3.05-18.55005-11.25-16.8501-9.65-18.85-8.6-2.54993,1.4-2.8,19.4,0,11.65.70007,21.5.25013,13.5,5.3999,13.5,4.70014,0,31.5-12.9,4.70014-2.35,5.4-1.9.85.6.95007,5.9.69983,12.55,14.94995,6.55,9.85017-3.95,30.45-19.35,4.45-3.3,3.75-7.3-.69983-3.75-6-6.7-25.4-16-32.7-18.45-11.14983-4-9.05,16.8m12.70008-3.55q-5.49994-2.35-4.9-5.05.4499-2.45,4.55005,0,2.25018,1.3,20.1,13.55a33.86012,33.86012,0,0,0,3.65,2,8.91177,8.91177,0,0,1,3.3999,3.15q-6.19976,3.75-20.1,12.7-10.8999,6.45-12.29993,3.9-1.90008-3.2.35-4.15.1,0,6.1-.8,10.80012-1.4,10.7-13.2-.00018-3.95-2.95-4.7-1.74993-.45-2,1.45-.6,2-1.75,2.2.8-8.45-4.85-11.05m-27.5,22.7q-3.75,1.4-3.05-3.3a9.04133,9.04133,0,0,0,0-3.05q-.1-2.25-.1-3.05a4.61443,4.61443,0,0,0-2.5-4.35,1.732,1.732,0,0,0-2.55.35,3.49881,3.49881,0,0,1-2.25,1.4,24.56636,24.56636,0,0,0,0-5.3,4.52335,4.52335,0,0,0-3.3999-3.75,52.98947,52.98947,0,0,1,13.04993,6.35q10.79993,6.7,13.75,8-12.59985,6.6-12.95,6.7m-9.5,2.95,1.29992-.85a14.45139,14.45139,0,0,1-5.3999,4.85,50.93726,50.93726,0,0,1-6.70007,2.45q-3.2,1.05-2.15-36.8,2.59992.15,2.6001,19.4Q1797.86312,239.16111,1808.31307,233.1611Z" fill="#43aeb5"/></svg>